{"glyphs":{"0":{"ha":1292,"x_min":6,"x_max":1251,"o":"m 1000 726 l 976 726 l 894 869 l 917 878 l 1000 726 m 1125 496 l 1103 496 l 1021 639 l 1043 649 l 1125 496 m 1251 267 l 1229 267 l 1146 408 l 1168 418 l 1251 267 m 882 917 l 6 917 l 6 943 l 882 943 l 882 917 m 1251 179 l 1168 32 l 1146 42 l 1229 188 l 1251 179 m 631 686 l 510 686 l 510 714 l 631 714 l 631 686 m 749 496 l 725 496 l 643 639 l 665 649 l 749 496 m 631 457 l 510 457 l 510 483 l 631 483 l 631 457 m 749 410 l 665 261 l 643 271 l 725 418 l 749 410 m 496 640 l 413 492 l 390 501 l 474 647 l 496 640 m 1126 -50 l 1043 -199 l 1021 -189 l 1103 -43 l 1126 -50 m 119 726 l 96 726 l 14 869 l 36 878 l 119 726 m 1000 -194 l 976 -194 l 894 -51 l 917 -42 l 1000 -194 m 631 226 l 510 226 l 510 253 l 631 253 l 631 226 m 496 267 l 474 267 l 392 408 l 414 418 l 496 267 m 119 640 l 36 492 l 14 501 l 96 647 l 119 640 m 882 -4 l 258 -4 l 258 24 l 882 24 l 882 -4 m 119 267 l 96 267 l 14 408 l 36 418 l 119 267 m 244 36 l 222 36 l 139 179 l 161 188 l 244 36 z "},"1":{"ha":768,"x_min":-6,"x_max":753,"o":"m 753 968 l 735 771 l 706 771 l 724 968 l 753 968 m 658 1015 l 122 1015 l 122 1044 l 658 1044 l 658 1015 m 753 714 l 735 517 l 706 517 l 724 714 l 753 714 m 753 460 l 735 263 l 706 263 l 724 460 l 753 460 m 253 761 l 122 761 l 122 790 l 253 790 l 253 761 m 108 964 l 19 800 l -6 811 l 83 972 l 108 964 m 753 206 l 735 8 l 706 8 l 724 206 l 753 206 m 211 714 l 193 517 l 164 517 l 181 714 l 211 714 m 211 460 l 193 263 l 164 263 l 181 460 l 211 460 m 658 -1 l 258 -1 l 258 29 l 658 29 l 658 -1 m 211 206 l 193 8 l 164 8 l 181 206 l 211 206 z "},"2":{"ha":1249,"x_min":-1,"x_max":1207,"o":"m 1085 733 l 1063 733 l 982 875 l 1004 885 l 1085 733 m 1085 647 l 1004 500 l 982 510 l 1063 656 l 1085 647 m 969 924 l -1 924 l -1 950 l 969 950 l 969 924 m 1085 276 l 1063 276 l 982 418 l 1004 426 l 1085 276 m 1207 47 l 1185 47 l 1104 189 l 1126 199 l 1207 47 m 969 465 l 486 465 l 486 492 l 969 492 l 969 465 m 725 694 l 121 694 l 121 721 l 725 721 l 725 694 m 1207 -39 l 1126 -186 l 1104 -176 l 1185 -31 l 1207 -39 m 1085 -182 l 1063 -182 l 982 -40 l 1004 -31 l 1085 -182 m 108 733 l 86 733 l 6 875 l 28 885 l 108 733 m 229 647 l 149 500 l 128 510 l 208 656 l 229 647 m 969 7 l 121 7 l 121 35 l 969 35 l 969 7 m 108 419 l 26 272 l 6 281 l 86 426 l 108 419 m 108 47 l 86 47 l 6 189 l 28 199 l 108 47 z "},"3":{"ha":1292,"x_min":3,"x_max":1267,"o":"m 1139 768 l 1117 768 l 1032 917 l 1056 926 l 1139 768 m 1133 547 q 1039 614 1106 547 q 1132 682 1081 657 l 1071 614 l 1133 547 m 1267 289 l 1244 289 l 1160 438 l 1183 447 l 1267 289 m 1019 967 l 3 967 l 3 994 l 1019 994 l 1019 967 m 1267 200 l 1183 46 l 1160 56 l 1244 208 l 1267 200 m 764 728 l 131 728 l 131 756 l 764 756 l 764 728 m 764 488 l 514 488 l 514 515 l 764 515 l 764 488 m 479 515 q 435 547 456 522 q 415 597 415 572 q 478 682 415 650 q 449 597 449 660 q 479 515 449 533 m 1139 -40 l 1056 -194 l 1032 -183 l 1117 -32 l 1139 -40 m 118 768 l 94 768 l 11 917 l 33 926 l 118 768 m 1011 -189 l 989 -189 l 904 -40 l 928 -32 l 1011 -189 m 381 488 l 258 488 l 258 515 l 381 515 l 381 488 m 246 439 l 161 285 l 139 294 l 222 447 l 246 439 m 892 8 l 131 8 l 131 36 l 892 36 l 892 8 m 118 200 l 33 46 l 11 56 l 94 208 l 118 200 z "},"4":{"ha":1224,"x_min":-4,"x_max":1190,"o":"m 950 964 l 833 964 l 833 986 l 950 986 l 950 964 m 1033 928 l 1017 775 l 992 775 l 1007 928 l 1033 928 m 1190 572 l 1075 572 l 1075 594 l 1190 594 l 1190 572 m 1033 732 l 1017 579 l 992 579 l 1007 732 l 1033 732 m 1183 532 l 1104 406 l 1082 414 l 1161 539 l 1183 532 m 671 928 l 656 775 l 629 775 l 644 928 l 671 928 m 588 964 l 351 964 l 351 986 l 588 986 l 588 964 m 671 732 l 656 579 l 629 579 l 644 732 l 671 732 m 1033 340 l 1017 188 l 992 188 l 1007 340 l 1033 340 m 339 924 l 260 797 l 238 806 l 317 931 l 339 924 m 694 528 q 660 533 707 528 q 607 528 629 536 q 661 564 647 564 l 694 528 m 1033 144 l 1017 4 l 990 4 l 1007 144 l 1033 144 m 218 728 l 139 601 l 117 610 l 196 735 l 218 728 m 935 -31 l 743 -31 l 743 -8 l 935 -8 l 935 -31 m 671 144 l 656 4 l 629 4 l 644 144 l 671 144 m 97 532 l 18 406 l -4 414 l 76 539 l 97 532 m 588 181 l 110 181 l 110 203 l 588 203 l 588 181 m 97 214 l 75 214 l -3 335 l 18 343 l 97 214 z "},"5":{"ha":1328,"x_min":17,"x_max":1296,"o":"m 1158 -50 l 1074 -206 l 1050 -196 l 1136 -42 l 1158 -50 m 1288 919 l 1203 764 l 1179 774 l 1265 928 l 1288 919 m 1296 968 l 268 968 l 268 997 l 1296 997 l 1296 968 m 1158 526 l 1135 526 l 1050 676 l 1074 686 l 1158 526 m 1167 726 l 656 726 l 656 754 l 1167 754 l 1167 726 m 1288 283 l 1264 283 l 1179 433 l 1203 443 l 1288 283 m 1288 193 l 1203 38 l 1179 47 l 1265 201 l 1288 193 m 193 1047 l 193 1047 l 193 1047 l 193 1047 m 222 924 l 206 736 l 178 736 l 194 924 l 222 924 m 779 485 l 268 485 l 268 513 l 779 513 l 779 485 m 1029 -201 l 1006 -201 l 921 -50 l 944 -40 l 1029 -201 m 222 682 l 206 493 l 178 493 l 194 682 l 222 682 m 254 435 l 169 279 l 146 289 l 231 443 l 254 435 m 908 0 l 139 0 l 139 28 l 908 28 l 908 0 m 125 193 l 40 38 l 17 47 l 101 201 l 125 193 z "},"6":{"ha":1217,"x_min":-1,"x_max":1190,"o":"m 1182 857 l 1103 711 l 1082 721 l 1161 864 l 1182 857 m 1190 903 l 232 903 l 232 929 l 1190 929 l 1190 903 m 1063 489 l 1040 489 l 961 629 l 983 639 l 1063 489 m 1182 263 l 1161 263 l 1082 403 l 1103 413 l 1182 263 m 1069 676 l 474 676 l 474 703 l 1069 703 l 1069 676 m 1182 178 l 1103 32 l 1082 42 l 1161 185 l 1182 178 m 822 263 l 800 263 l 721 403 l 742 413 l 822 263 m 708 450 l 474 450 l 474 476 l 708 476 l 708 450 m 219 857 l 140 711 l 119 721 l 199 864 l 219 857 m 1063 -49 l 983 -194 l 961 -185 l 1040 -42 l 1063 -49 m 708 224 l 474 224 l 474 250 l 708 250 l 708 224 m 942 -190 l 919 -190 l 842 -50 l 863 -40 l 942 -190 m 431 408 l 415 232 l 389 232 l 404 408 l 431 408 m 100 631 l 19 485 l -1 494 l 78 638 l 100 631 m 829 -3 l 232 -3 l 232 24 l 829 24 l 829 -3 m 100 263 l 78 263 l -1 403 l 21 413 l 100 263 m 219 36 l 199 36 l 119 176 l 140 186 l 219 36 z "},"7":{"ha":1232,"x_min":4,"x_max":1182,"o":"m 1182 721 l 1160 721 l 1082 860 l 1103 869 l 1182 721 m 1182 636 l 1103 492 l 1082 500 l 1160 644 l 1182 636 m 1069 907 l 4 907 l 4 933 l 1069 933 l 1069 907 m 1063 411 l 985 267 l 963 275 l 1042 418 l 1063 411 m 832 682 l 124 682 l 124 708 l 832 708 l 832 682 m 586 636 l 508 492 l 488 500 l 565 644 l 586 636 m 944 186 l 865 40 l 844 50 l 922 193 l 944 186 m 111 721 l 89 721 l 11 860 l 32 869 l 111 721 m 468 411 l 389 267 l 368 275 l 446 418 l 468 411 m 832 6 l 361 6 l 361 32 l 832 32 l 832 6 m 349 186 l 269 40 l 249 50 l 328 193 l 349 186 z "},"8":{"ha":1196,"x_min":15,"x_max":1151,"o":"m 1036 732 l 1015 732 l 939 874 l 960 883 l 1036 732 m 1031 519 q 944 585 1006 519 q 1031 650 983 625 l 974 585 l 1031 519 m 928 921 l 239 921 l 239 949 l 928 949 l 928 921 m 1151 274 l 1131 274 l 1056 415 l 1075 425 l 1151 274 m 697 693 l 471 693 l 471 719 l 697 719 l 697 693 m 1151 188 l 1075 40 l 1056 50 l 1131 196 l 1151 188 m 682 342 l 600 342 l 600 368 l 682 368 l 682 342 m 228 875 l 151 728 l 131 738 l 207 883 l 228 875 m 1036 -40 l 960 -189 l 939 -179 l 1015 -33 l 1036 -40 m 567 342 l 485 342 l 485 368 l 567 368 l 567 342 m 921 -183 l 900 -183 l 824 -42 l 844 -33 l 921 -183 m 222 585 q 138 518 183 543 l 193 583 l 136 649 q 222 585 163 649 m 813 6 l 124 6 l 124 32 l 813 32 l 813 6 m 113 417 l 36 269 l 15 279 l 92 425 l 113 417 m 113 44 l 90 44 l 15 188 l 36 196 l 113 44 z "},"9":{"ha":1181,"x_min":-10,"x_max":1144,"o":"m 1144 703 l 1124 703 l 1046 840 l 1067 850 l 1144 703 m 1144 619 l 1067 476 l 1046 486 l 1124 626 l 1144 619 m 1035 888 l 101 888 l 101 913 l 1035 913 l 1035 888 m 1028 397 l 950 254 l 929 264 l 1006 404 l 1028 397 m 682 665 l 453 665 l 453 690 l 682 690 l 682 665 m 910 175 l 832 32 l 811 42 l 889 182 l 910 175 m 89 842 l 11 699 l -10 708 l 68 849 l 89 842 m 565 443 l 101 443 l 101 468 l 565 468 l 565 443 m 440 397 l 363 254 l 342 264 l 419 404 l 440 397 m 89 481 l 67 481 l -10 618 l 11 628 l 89 481 m 800 -1 l 336 -1 l 336 24 l 800 24 l 800 -1 m 324 175 l 246 32 l 225 42 l 301 182 l 324 175 z "}," ":{"ha":694,"x_min":0,"x_max":0,"o":""},"!":{"ha":356,"x_min":1,"x_max":326,"o":"m 318 -24 l 238 -171 l 217 -161 l 297 -15 l 318 -24 m 196 -167 l 175 -167 l 94 -25 l 115 -15 l 196 -167 m 260 1013 l 260 1013 l 260 1013 l 260 1013 m 204 939 l 88 939 l 88 965 l 204 965 l 204 939 m 289 896 l 272 718 l 246 718 l 263 896 l 289 896 m 15 1013 l 15 1013 l 15 1013 l 15 1013 m 289 667 l 272 489 l 246 489 l 263 667 l 289 667 m 44 896 l 29 718 l 1 718 l 18 896 l 44 896 m 289 439 l 272 260 l 246 260 l 263 439 l 289 439 m 44 667 l 29 489 l 1 489 l 18 667 l 44 667 m 196 292 l 175 292 l 94 433 l 115 442 l 196 292 m 326 22 l 88 22 l 88 50 l 326 50 l 326 22 z "},"\"":{"ha":607,"x_min":10,"x_max":583,"o":"m 278 931 l 251 931 l 156 1089 l 182 1100 l 278 931 m 132 1090 l 35 925 l 10 936 l 106 1099 l 132 1090 m 278 835 l 181 669 l 156 681 l 251 843 l 278 835 m 89 824 l 93 781 l 78 749 l 60 729 l 86 733 l 101 754 l 117 785 l 110 817 l 101 844 l 65 850 l 89 824 m 89 824 l 93 781 l 78 749 l 60 729 l 86 733 l 101 754 l 117 785 l 110 817 l 101 844 l 65 850 l 89 824 m 583 931 l 557 931 l 461 1089 l 488 1100 l 583 931 m 438 1090 l 340 925 l 315 936 l 411 1099 l 438 1090 m 583 835 l 486 669 l 461 681 l 557 843 l 583 835 m 394 824 l 399 781 l 383 749 l 365 729 l 392 733 l 407 754 l 422 785 l 415 817 l 407 844 l 371 850 l 394 824 m 394 824 l 399 781 l 383 749 l 365 729 l 392 733 l 407 754 l 422 785 l 415 817 l 407 844 l 371 850 l 394 824 z "},"#":{"ha":1051,"x_min":3,"x_max":1090,"o":"m 1090 779 l 876 779 l 876 801 l 1090 801 l 1090 779 m 1083 740 l 1011 615 l 992 624 l 1064 747 l 1083 740 m 763 972 l 658 972 l 658 994 l 763 994 l 763 972 m 839 936 l 824 786 l 800 786 l 814 936 l 839 936 m 619 936 l 606 786 l 582 786 l 596 936 l 619 936 m 947 550 l 933 400 l 910 400 l 924 550 l 947 550 m 435 972 l 331 972 l 331 994 l 435 994 l 435 972 m 511 936 l 496 786 l 472 786 l 486 936 l 511 936 m 1083 233 l 1064 233 l 992 353 l 1011 361 l 1083 233 m 292 936 l 278 786 l 254 786 l 268 936 l 292 936 m 653 586 l 439 586 l 439 608 l 653 608 l 653 586 m 982 200 l 876 200 l 876 222 l 982 222 l 982 200 m 619 550 l 606 400 l 582 400 l 596 550 l 619 550 m 511 550 l 496 400 l 472 400 l 486 550 l 511 550 m 217 779 l 3 779 l 3 801 l 217 801 l 217 779 m 839 165 l 824 14 l 800 14 l 814 165 l 839 165 m 642 339 q 582 347 607 333 l 556 321 q 471 347 501 318 l 440 322 q 457 360 447 342 q 513 333 485 360 l 538 360 q 586 348 556 360 q 629 336 617 336 q 642 339 636 336 m 100 619 l 81 619 l 8 739 l 28 747 l 100 619 m 763 7 l 658 7 l 658 29 l 763 29 l 763 7 m 619 165 l 606 14 l 582 14 l 596 165 l 619 165 m 182 550 l 168 400 l 144 400 l 158 550 l 182 550 m 511 165 l 496 14 l 472 14 l 486 165 l 511 165 m 435 7 l 331 7 l 331 29 l 435 29 l 435 7 m 217 200 l 111 200 l 111 222 l 217 222 l 217 200 m 292 165 l 278 14 l 254 14 l 268 165 l 292 165 m 100 354 l 28 229 l 8 238 l 81 361 l 100 354 z "},"$":{"ha":944,"x_min":-96,"x_max":983,"o":"m 983 807 l 769 807 l 769 831 l 983 831 l 983 807 m 976 765 l 904 636 l 885 644 l 957 772 l 976 765 m 758 842 l 739 842 l 668 967 l 686 975 l 758 842 m 650 967 l 578 838 l 558 846 l 631 974 l 650 967 m 875 604 l 769 604 l 769 628 l 875 628 l 875 604 m 758 765 l 686 636 l 668 644 l 739 772 l 758 765 m 868 438 l 847 438 l 776 563 l 796 571 l 868 438 m 976 235 l 957 235 l 885 361 l 904 368 l 976 235 m 540 765 l 469 636 l 450 644 l 521 772 l 540 765 m 547 807 l 117 807 l 117 831 l 547 831 l 547 807 m 650 564 l 578 433 l 558 442 l 631 571 l 650 564 m 976 160 l 904 29 l 885 38 l 957 167 l 976 160 m 432 564 l 360 433 l 340 442 l 413 571 l 432 564 m 540 361 l 469 232 l 450 240 l 521 368 l 540 361 m 106 765 l 33 636 l 14 644 l 85 772 l 106 765 m 868 -43 l 796 -172 l 776 -164 l 849 -36 l 868 -43 m 329 403 l 117 403 l 117 426 l 329 426 l 329 403 m 758 -168 l 739 -168 l 668 -43 l 686 -35 l 758 -168 m 322 361 l 251 232 l 232 240 l 303 368 l 322 361 m 106 438 l 85 438 l 14 563 l 33 571 l 106 438 m 657 -1 l 443 -1 l 443 22 l 657 22 l 657 -1 m 432 160 l 360 29 l 340 38 l 413 167 l 432 160 m 106 361 l 33 232 l 14 240 l 85 368 l 106 361 m 214 160 l 142 29 l 122 38 l 194 167 l 214 160 m 322 -43 l 251 -172 l 232 -164 l 303 -36 l 322 -43 m 111 -1 l 7 -1 l 7 22 l 111 22 l 111 -1 m 214 -168 l 194 -168 l 122 -43 l 142 -35 l 214 -168 m -4 160 l -76 29 l -96 38 l -24 167 l -4 160 z "},"%":{"ha":856,"x_min":4,"x_max":803,"o":"m 700 858 l 682 858 l 615 976 l 633 985 l 700 858 m 599 978 l 531 856 l 513 863 l 581 985 l 599 978 m 700 788 l 633 664 l 615 672 l 682 793 l 700 788 m 497 788 l 429 664 l 411 672 l 478 793 l 497 788 m 707 443 l 610 443 l 610 465 l 707 465 l 707 443 m 803 285 l 783 285 l 717 404 l 735 411 l 803 285 m 599 596 l 531 472 l 513 481 l 581 603 l 599 596 m 197 826 l 100 826 l 100 849 l 197 849 l 197 826 m 293 668 l 274 668 l 207 786 l 225 793 l 293 668 m 803 214 l 735 90 l 717 99 l 783 219 l 803 214 m 599 404 l 531 282 l 513 289 l 581 411 l 599 404 m 394 596 l 328 472 l 310 481 l 376 603 l 394 596 m 497 404 l 429 282 l 411 289 l 478 411 l 497 404 m 293 596 l 225 472 l 207 481 l 275 603 l 293 596 m 89 788 l 21 664 l 4 672 l 71 793 l 89 788 m 707 61 l 610 61 l 610 83 l 707 83 l 707 61 m 599 94 l 581 94 l 513 213 l 532 221 l 599 94 m 197 443 l 100 443 l 100 465 l 197 465 l 197 443 m 293 404 l 225 282 l 207 289 l 275 411 l 293 404 m 89 476 l 71 476 l 4 594 l 22 603 l 89 476 m 394 214 l 328 90 l 310 99 l 376 219 l 394 214 m 190 214 l 124 90 l 106 99 l 172 219 l 190 214 m 293 22 l 225 -100 l 207 -93 l 275 29 l 293 22 m 190 -97 l 172 -97 l 106 21 l 124 29 l 190 -97 z "},"&":{"ha":951,"x_min":-6,"x_max":992,"o":"m 992 478 l 971 478 l 897 613 l 918 622 l 992 478 m 767 696 l 746 696 l 672 831 l 692 840 l 767 696 m 879 614 l 804 474 l 785 483 l 858 621 l 879 614 m 661 876 l 214 876 l 214 901 l 661 901 l 661 876 m 992 396 l 918 256 l 897 265 l 972 403 l 992 396 m 761 494 q 676 556 736 494 q 760 618 715 594 l 706 556 l 761 494 m 879 260 l 858 260 l 785 394 l 804 404 l 879 260 m 547 658 l 440 658 l 440 683 l 547 683 l 547 658 m 992 42 l 971 42 l 897 176 l 918 186 l 992 42 m 547 440 l 440 440 l 440 465 l 547 465 l 547 440 m 654 260 l 633 260 l 560 394 l 579 404 l 654 260 m 203 832 l 128 692 l 108 701 l 182 839 l 203 832 m 992 -40 l 918 -181 l 897 -171 l 972 -33 l 992 -40 m 767 42 l 746 42 l 672 176 l 692 186 l 767 42 m 879 -176 l 858 -176 l 785 -42 l 804 -32 l 879 -176 m 547 222 l 440 222 l 440 247 l 547 247 l 547 222 m 422 276 q 339 338 397 276 q 422 400 376 376 l 367 338 l 422 276 m 197 556 q 114 493 160 517 l 169 556 l 114 615 q 197 556 139 615 m 661 4 l 101 4 l 101 29 l 661 29 l 661 4 m 89 396 l 15 256 l -6 265 l 69 403 l 89 396 m 89 42 l 69 42 l -6 176 l 15 186 l 89 42 z "},"'":{"ha":307,"x_min":10,"x_max":278,"o":"m 278 931 l 251 931 l 156 1089 l 182 1100 l 278 931 m 132 1090 l 35 925 l 10 936 l 106 1099 l 132 1090 m 278 835 l 181 669 l 156 681 l 251 843 l 278 835 m 89 824 l 93 781 l 78 749 l 60 729 l 86 733 l 101 754 l 117 785 l 110 817 l 101 844 l 65 850 l 89 824 m 89 824 l 93 781 l 78 749 l 60 729 l 86 733 l 101 754 l 117 785 l 110 817 l 101 844 l 65 850 l 89 824 z "},"(":{"ha":704,"x_min":1,"x_max":671,"o":"m 671 1039 l 325 1039 l 325 1063 l 671 1063 l 671 1039 m 663 996 l 586 864 l 565 872 l 642 1004 l 663 996 m 546 789 l 469 657 l 449 665 l 525 797 l 546 789 m 313 996 l 236 864 l 215 872 l 292 1004 l 313 996 m 410 440 q 369 469 388 447 q 351 513 351 490 q 408 585 351 558 q 381 513 381 567 q 410 440 381 457 m 196 789 l 119 657 l 99 665 l 175 797 l 196 789 m 546 246 l 525 246 l 449 375 l 469 383 l 546 246 m 663 39 l 642 39 l 565 168 l 586 176 l 663 39 m 60 440 q 19 469 38 447 q 1 513 1 490 q 58 585 1 558 q 31 513 31 567 q 60 440 31 457 m 196 246 l 175 246 l 99 375 l 119 383 l 196 246 m 554 4 l 325 4 l 325 28 l 554 28 l 554 4 m 313 39 l 292 39 l 215 168 l 236 176 l 313 39 z "},")":{"ha":614,"x_min":15,"x_max":589,"o":"m 403 789 l 385 789 l 319 904 l 338 913 l 403 789 m 503 603 l 485 603 l 419 718 l 436 725 l 503 603 m 310 943 l 15 943 l 15 965 l 310 965 l 310 943 m 104 789 l 86 789 l 21 904 l 39 913 l 104 789 m 204 603 l 186 603 l 121 718 l 138 725 l 204 603 m 503 346 l 436 225 l 419 233 l 485 351 l 503 346 m 403 160 l 338 39 l 319 47 l 385 165 l 403 160 m 204 346 l 138 225 l 121 233 l 186 351 l 204 346 m 310 11 l 115 11 l 115 32 l 310 32 l 310 11 m 104 160 l 39 39 l 21 47 l 86 165 l 104 160 m 403 789 l 338 913 l 319 904 l 385 789 l 403 789 m 503 603 l 436 725 l 419 718 l 485 603 l 503 603 m 310 943 l 310 965 l 15 965 l 15 943 l 310 943 m 104 789 l 39 913 l 21 904 l 86 789 l 104 789 m 204 603 l 138 725 l 121 718 l 186 603 l 204 603 m 503 346 l 485 351 l 419 233 l 436 225 l 503 346 m 403 160 l 385 165 l 319 47 l 338 39 l 403 160 m 204 346 l 186 351 l 121 233 l 138 225 l 204 346 m 310 11 l 310 32 l 115 32 l 115 11 l 310 11 m 104 160 l 86 165 l 21 47 l 39 39 l 104 160 m 561 504 l 565 461 l 550 429 l 532 410 l 558 414 l 574 435 l 589 465 l 582 497 l 574 525 l 538 531 l 561 504 m 561 504 l 565 461 l 550 429 l 532 410 l 558 414 l 574 435 l 589 465 l 582 497 l 574 525 l 538 531 l 561 504 m 256 504 l 258 461 l 243 429 l 225 410 l 251 414 l 267 435 l 282 465 l 276 497 l 267 525 l 231 531 l 256 504 m 256 504 l 258 461 l 243 429 l 225 410 l 251 414 l 267 435 l 282 465 l 276 497 l 267 525 l 231 531 l 256 504 z "},"*":{"ha":999,"x_min":11,"x_max":978,"o":"m 756 888 l 736 888 l 665 1013 l 683 1021 l 756 888 m 647 1014 l 576 883 l 557 892 l 628 1021 l 647 1014 m 978 650 l 767 650 l 767 674 l 978 674 l 978 650 m 971 608 l 900 479 l 881 488 l 951 615 l 971 608 m 736 672 q 700 700 717 679 q 683 743 683 721 q 736 814 683 788 q 710 743 710 796 q 736 672 710 689 m 539 888 l 519 888 l 449 1013 l 468 1021 l 539 888 m 406 1017 l 392 860 l 368 860 l 382 1017 l 406 1017 m 869 447 l 767 447 l 767 471 l 869 471 l 869 447 m 324 888 l 304 888 l 233 1013 l 253 1021 l 324 888 m 863 281 l 843 281 l 772 406 l 792 414 l 863 281 m 215 1014 l 144 883 l 125 892 l 196 1021 l 215 1014 m 863 204 l 792 75 l 772 83 l 843 211 l 863 204 m 756 78 l 736 78 l 665 204 l 683 211 l 756 78 m 621 208 l 607 51 l 583 51 l 597 208 l 621 208 m 115 650 l 11 650 l 11 674 l 115 674 l 115 650 m 539 78 l 519 78 l 449 204 l 468 211 l 539 78 m 222 447 l 119 447 l 119 471 l 222 471 l 222 447 m 108 483 l 89 483 l 18 608 l 36 617 l 108 483 m 432 204 l 360 75 l 342 83 l 413 211 l 432 204 m 324 78 l 304 78 l 233 204 l 253 211 l 324 78 m 269 365 l 274 322 l 258 290 l 240 271 l 267 275 l 282 296 l 297 326 l 290 358 l 282 386 l 246 392 l 269 365 m 269 365 l 274 322 l 258 290 l 240 271 l 267 275 l 282 296 l 297 326 l 290 358 l 282 386 l 246 392 l 269 365 m 186 810 l 190 767 l 175 735 l 157 715 l 183 719 l 199 740 l 214 771 l 207 803 l 199 831 l 163 836 l 186 810 m 186 810 l 190 767 l 175 735 l 157 715 l 183 719 l 199 740 l 214 771 l 207 803 l 199 831 l 163 836 l 186 810 z "},"+":{"ha":1389,"x_min":7,"x_max":1454,"o":"m 869 0 l 583 0 l 583 32 l 869 32 l 869 0 m 1454 547 l 1021 547 l 1021 579 l 1454 579 l 1454 547 m 1444 492 l 1349 315 l 1322 326 l 1418 501 l 1444 492 m 971 771 l 951 558 l 919 558 l 939 771 l 971 771 m 869 822 l 583 822 l 583 854 l 869 854 l 869 822 m 1307 274 l 1021 274 l 1021 306 l 1307 306 l 1307 274 m 497 911 l 497 911 l 497 911 l 497 911 m 532 771 l 513 558 l 481 558 l 500 771 l 532 771 m 971 222 l 951 10 l 919 10 l 939 222 l 971 222 m 431 547 l 144 547 l 144 579 l 431 579 l 431 547 m 532 222 l 513 10 l 481 10 l 500 222 l 532 222 m 431 274 l 144 274 l 144 306 l 431 306 l 431 274 m 129 492 l 32 315 l 7 326 l 103 501 l 129 492 z "},",":{"ha":303,"x_min":10,"x_max":278,"o":"m 278 292 l 251 292 l 156 450 l 182 461 l 278 292 m 132 451 l 35 286 l 10 297 l 106 460 l 132 451 m 278 196 l 181 31 l 156 42 l 251 204 l 278 196 m 89 185 l 93 142 l 78 110 l 60 90 l 86 94 l 101 115 l 117 146 l 110 178 l 101 206 l 65 211 l 89 185 m 89 185 l 93 142 l 78 110 l 60 90 l 86 94 l 101 115 l 117 146 l 110 178 l 101 206 l 65 211 l 89 185 z "},"-":{"ha":1389,"x_min":8,"x_max":1389,"o":"m 1376 654 l 1244 408 l 1208 424 l 1340 668 l 1376 654 m 1389 732 l 197 732 l 197 778 l 1389 778 l 1389 732 m 1189 349 l 197 349 l 197 393 l 1189 393 l 1189 349 m 176 654 l 44 408 l 8 424 l 140 668 l 176 654 z "},"‐":{"ha":1389,"x_min":8,"x_max":1389,"o":"m 1376 654 l 1244 408 l 1208 424 l 1340 668 l 1376 654 m 1389 732 l 197 732 l 197 778 l 1389 778 l 1389 732 m 1189 349 l 197 349 l 197 393 l 1189 393 l 1189 349 m 176 654 l 44 408 l 8 424 l 140 668 l 176 654 z "},".":{"ha":447,"x_min":14,"x_max":421,"o":"m 421 210 l 381 210 l 236 342 l 275 350 l 421 210 m 200 342 l 54 206 l 14 215 l 160 350 l 200 342 m 421 131 l 275 -6 l 236 3 l 381 138 l 421 131 m 200 -1 l 160 -1 l 14 129 l 54 138 l 200 -1 z "},"/":{"ha":376,"x_min":33,"x_max":594,"o":"m 594 856 l 578 856 l 514 963 l 531 969 l 594 856 m 499 963 l 435 853 l 418 860 l 481 968 l 499 963 m 594 792 l 531 682 l 514 689 l 578 797 l 594 792 m 403 792 l 339 682 l 322 689 l 385 797 l 403 792 m 499 621 l 435 511 l 418 518 l 481 628 l 499 621 m 306 621 l 242 511 l 225 518 l 289 628 l 306 621 m 403 450 l 339 340 l 322 347 l 385 457 l 403 450 m 210 450 l 146 340 l 129 347 l 192 457 l 210 450 m 306 279 l 242 169 l 225 176 l 289 286 l 306 279 m 114 279 l 50 169 l 33 176 l 96 286 l 114 279 m 210 110 l 146 -1 l 129 6 l 192 115 l 210 110 m 114 3 l 96 3 l 33 108 l 50 115 l 114 3 z "},":":{"ha":288,"x_min":3,"x_max":272,"o":"m 272 799 l 246 799 l 150 961 l 175 971 l 272 799 m 125 963 l 28 794 l 3 806 l 99 971 l 125 963 m 272 701 l 175 533 l 150 544 l 246 710 l 272 701 m 125 539 l 99 539 l 3 700 l 28 711 l 125 539 m 272 278 l 246 278 l 150 440 l 175 450 l 272 278 m 125 440 l 28 274 l 3 283 l 99 450 l 125 440 m 272 181 l 175 13 l 150 24 l 246 189 l 272 181 m 125 18 l 99 18 l 3 179 l 28 189 l 125 18 z "},";":{"ha":322,"x_min":10,"x_max":278,"o":"m 278 803 l 251 803 l 156 963 l 182 972 l 278 803 m 132 964 l 35 799 l 10 810 l 106 972 l 132 964 m 278 707 l 181 543 l 156 553 l 251 717 l 278 707 m 132 547 l 106 547 l 10 706 l 35 717 l 132 547 m 278 292 l 251 292 l 156 450 l 182 461 l 278 292 m 132 451 l 35 286 l 10 297 l 106 460 l 132 451 m 278 196 l 181 31 l 156 42 l 251 204 l 278 196 m 89 185 l 93 142 l 78 110 l 60 90 l 86 94 l 101 115 l 117 146 l 110 178 l 101 206 l 65 211 l 89 185 m 89 185 l 93 142 l 78 110 l 60 90 l 86 94 l 101 115 l 117 146 l 110 178 l 101 206 l 65 211 l 89 185 z "},"<":{"ha":704,"x_min":1,"x_max":671,"o":"m 671 1039 l 325 1039 l 325 1063 l 671 1063 l 671 1039 m 663 996 l 586 864 l 565 872 l 642 1004 l 663 996 m 546 789 l 469 657 l 449 665 l 525 797 l 546 789 m 313 996 l 236 864 l 215 872 l 292 1004 l 313 996 m 410 440 q 369 469 388 447 q 351 513 351 490 q 408 585 351 558 q 381 513 381 567 q 410 440 381 457 m 196 789 l 119 657 l 99 665 l 175 797 l 196 789 m 546 246 l 525 246 l 449 375 l 469 383 l 546 246 m 663 39 l 642 39 l 565 168 l 586 176 l 663 39 m 60 440 q 19 469 38 447 q 1 513 1 490 q 58 585 1 558 q 31 513 31 567 q 60 440 31 457 m 196 246 l 175 246 l 99 375 l 119 383 l 196 246 m 554 4 l 325 4 l 325 28 l 554 28 l 554 4 m 313 39 l 292 39 l 215 168 l 236 176 l 313 39 z "},"=":{"ha":1200,"x_min":-1,"x_max":1178,"o":"m 1168 688 l 1054 482 l 1024 496 l 1136 699 l 1168 688 m 1178 753 l 160 753 l 160 790 l 1178 790 l 1178 753 m 1168 368 l 1054 161 l 1024 175 l 1136 379 l 1168 368 m 1007 433 l 160 433 l 160 469 l 1007 469 l 1007 433 m 1007 113 l 160 113 l 160 150 l 1007 150 l 1007 113 m 142 688 l 29 482 l -1 496 l 111 699 l 142 688 m 142 368 l 29 161 l -1 175 l 111 379 l 142 368 z "},">":{"ha":614,"x_min":22,"x_max":594,"o":"m 410 786 l 392 786 l 326 901 l 344 908 l 410 786 m 508 600 l 490 600 l 425 715 l 443 722 l 508 600 m 317 940 l 22 940 l 22 961 l 317 961 l 317 940 m 111 786 l 93 786 l 29 901 l 46 908 l 111 786 m 211 600 l 193 600 l 128 715 l 146 722 l 211 600 m 508 343 l 443 224 l 425 231 l 490 350 l 508 343 m 410 157 l 343 38 l 326 44 l 392 163 l 410 157 m 211 343 l 146 224 l 128 231 l 193 350 l 211 343 m 317 8 l 122 8 l 122 31 l 317 31 l 317 8 m 111 157 l 46 38 l 29 44 l 94 163 l 111 157 m 410 786 l 344 908 l 326 901 l 392 786 l 410 786 m 508 600 l 443 722 l 425 715 l 490 600 l 508 600 m 317 940 l 317 961 l 22 961 l 22 940 l 317 940 m 111 786 l 46 908 l 29 901 l 93 786 l 111 786 m 211 600 l 146 722 l 128 715 l 193 600 l 211 600 m 508 343 l 490 350 l 425 231 l 443 224 l 508 343 m 410 157 l 392 163 l 326 44 l 343 38 l 410 157 m 211 343 l 193 350 l 128 231 l 146 224 l 211 343 m 317 8 l 317 31 l 122 31 l 122 8 l 317 8 m 111 157 l 94 163 l 29 44 l 46 38 l 111 157 m 568 501 l 571 460 l 556 426 l 538 408 l 564 411 l 579 432 l 594 463 l 588 494 l 579 522 l 543 528 l 568 501 m 568 501 l 571 460 l 556 426 l 538 408 l 564 411 l 579 432 l 594 463 l 588 494 l 579 522 l 543 528 l 568 501 m 263 501 l 265 460 l 250 426 l 232 408 l 258 411 l 274 432 l 289 463 l 283 494 l 274 522 l 238 528 l 263 501 m 263 501 l 265 460 l 250 426 l 232 408 l 258 411 l 274 432 l 289 463 l 283 494 l 274 522 l 238 528 l 263 501 z "},"?":{"ha":1200,"x_min":0,"x_max":1221,"o":"m 1221 806 l 1199 806 l 1118 949 l 1140 958 l 1221 806 m 1221 718 l 1139 569 l 1118 579 l 1199 726 l 1221 718 m 1106 997 l 0 997 l 0 1024 l 1106 1024 l 1106 997 m 1106 533 l 864 533 l 864 561 l 1106 561 l 1106 533 m 735 765 l 124 765 l 124 793 l 735 793 l 735 765 m 821 492 l 804 311 l 778 311 l 793 492 l 821 492 m 481 718 l 399 569 l 376 579 l 458 726 l 481 718 m 821 260 l 804 79 l 778 79 l 793 260 l 821 260 m 110 806 l 88 806 l 7 949 l 29 958 l 110 806 m 846 -39 q 754 -104 804 -81 l 815 -39 l 754 26 q 846 -39 781 26 m 326 492 l 311 311 l 283 311 l 300 492 l 326 492 m 735 71 l 369 71 l 369 99 l 735 99 l 735 71 m 326 260 l 311 79 l 283 79 l 300 260 l 326 260 m 735 -161 l 369 -161 l 369 -133 l 735 -133 l 735 -161 m 351 -104 q 260 -39 324 -104 q 350 28 300 3 l 290 -39 l 351 -104 z "},"@":{"ha":1081,"x_min":-11,"x_max":1110,"o":"m 774 4 l 206 4 l 206 29 l 774 29 l 774 4 m 996 686 l 975 686 l 900 818 l 919 828 l 996 686 m 1110 471 l 1089 471 l 1014 604 l 1035 613 l 1110 471 m 889 864 l 321 864 l 321 889 l 889 889 l 889 864 m 1110 390 l 1035 251 l 1014 261 l 1089 397 l 1110 390 m 881 471 l 860 471 l 785 604 l 806 613 l 881 471 m 774 649 l 435 649 l 435 674 l 774 674 l 774 649 m 774 433 l 664 433 l 664 458 l 774 458 l 774 433 m 597 504 l 597 504 l 597 504 l 597 504 m 308 819 l 233 682 l 213 690 l 288 826 l 308 819 m 1003 219 l 435 219 l 435 244 l 1003 244 l 1003 219 m 881 42 l 860 42 l 785 175 l 806 183 l 881 42 m 424 604 l 347 467 l 326 475 l 403 613 l 424 604 m 424 256 l 403 256 l 328 389 l 347 397 l 424 256 m 194 604 l 118 467 l 99 475 l 174 613 l 194 604 m 74 272 q -11 332 49 272 q 74 393 26 371 l 17 332 l 74 272 m 194 42 l 174 42 l 99 175 l 118 183 l 194 42 z "},"A":{"ha":1389,"x_min":1,"x_max":1369,"o":"m 1117 750 l 1094 750 l 1011 897 l 1033 907 l 1117 750 m 1243 514 l 1221 514 l 1138 661 l 1160 669 l 1243 514 m 1369 276 l 1347 276 l 1264 424 l 1286 433 l 1369 276 m 999 946 l 372 946 l 372 974 l 999 974 l 999 946 m 1369 188 l 1286 36 l 1264 46 l 1347 196 l 1369 188 m 746 710 l 625 710 l 625 738 l 746 738 l 746 710 m 865 514 l 842 514 l 758 661 l 782 669 l 865 514 m 746 474 l 625 474 l 625 500 l 746 500 l 746 474 m 613 661 l 529 510 l 507 519 l 589 669 l 613 661 m 360 899 l 276 746 l 254 756 l 336 907 l 360 899 m 1243 -49 l 1160 -201 l 1138 -192 l 1221 -40 l 1243 -49 m 707 429 l 690 244 l 664 244 l 679 429 l 707 429 m 1117 -197 l 1094 -197 l 1011 -50 l 1033 -40 l 1117 -197 m 999 0 l 751 0 l 751 26 l 999 26 l 999 0 m 707 193 l 690 8 l 664 8 l 679 193 l 707 193 m 233 661 l 150 510 l 128 519 l 211 669 l 233 661 m 107 425 l 24 272 l 1 282 l 85 433 l 107 425 m 619 0 l 121 0 l 121 26 l 619 26 l 619 0 m 107 40 l 85 40 l 1 188 l 24 196 l 107 40 z "},"B":{"ha":1389,"x_min":10,"x_max":1369,"o":"m 1369 742 l 1347 742 l 1265 888 l 1288 897 l 1369 742 m 1369 654 l 1288 504 l 1265 514 l 1347 663 l 1369 654 m 1253 468 l 1133 468 l 1133 494 l 1253 494 l 1253 468 m 1369 274 l 1347 274 l 1265 419 l 1288 429 l 1369 274 m 1253 936 l 10 936 l 10 964 l 1253 964 l 1253 936 m 1369 186 l 1288 36 l 1265 46 l 1347 194 l 1369 186 m 839 658 l 824 476 l 796 476 l 813 658 l 839 658 m 878 701 l 133 701 l 133 729 l 878 729 l 878 701 m 839 425 l 824 243 l 796 243 l 813 425 l 839 425 m 1244 -47 l 1163 -199 l 1140 -189 l 1222 -40 l 1244 -47 m 1119 -194 l 1097 -194 l 1015 -49 l 1038 -39 l 1119 -194 m 121 742 l 99 742 l 17 888 l 39 897 l 121 742 m 215 658 l 199 476 l 172 476 l 188 658 l 215 658 m 1003 0 l 258 0 l 258 26 l 1003 26 l 1003 0 m 215 425 l 199 243 l 172 243 l 188 425 l 215 425 m 215 190 l 199 8 l 172 8 l 188 190 l 215 190 z "},"C":{"ha":1389,"x_min":8,"x_max":1493,"o":"m 1349 808 l 1324 808 l 1236 965 l 1260 975 l 1349 808 m 1349 713 l 1260 549 l 1236 560 l 1325 721 l 1349 713 m 1214 554 l 1189 554 l 1100 711 l 1124 722 l 1214 554 m 1086 764 l 686 764 l 686 794 l 1086 794 l 1086 764 m 1222 1018 l 8 1018 l 8 1047 l 1222 1047 l 1222 1018 m 1485 204 l 1394 42 l 1371 51 l 1460 213 l 1485 204 m 1493 256 l 957 256 l 957 286 l 1493 286 l 1493 256 m 807 554 l 782 554 l 693 711 l 718 722 l 807 554 m 943 300 l 918 300 l 829 457 l 853 468 l 943 300 m 1349 -50 l 1260 -212 l 1236 -203 l 1325 -40 l 1349 -50 m 1214 -208 l 1189 -208 l 1100 -51 l 1124 -40 l 1214 -208 m 274 764 l 143 764 l 143 794 l 274 794 l 274 764 m 129 808 l 106 808 l 17 965 l 40 975 l 129 808 m 129 713 l 40 549 l 17 560 l 106 721 l 129 713 m 1086 1 l 279 1 l 279 32 l 1086 32 l 1086 1 m 129 300 l 106 300 l 17 457 l 40 468 l 129 300 m 265 46 l 240 46 l 151 203 l 175 214 l 265 46 z "},"D":{"ha":1389,"x_min":7,"x_max":1414,"o":"m 1156 769 l 1132 769 l 1047 919 l 1071 929 l 1156 769 m 1285 528 l 1261 528 l 1176 678 l 1200 688 l 1285 528 m 1414 285 l 1390 285 l 1306 435 l 1329 444 l 1414 285 m 1035 969 l 7 969 l 7 999 l 1035 999 l 1035 969 m 1414 194 l 1329 39 l 1306 49 l 1390 203 l 1414 194 m 865 683 l 849 494 l 821 494 l 838 683 l 865 683 m 861 460 l 851 438 l 810 458 l 818 482 l 861 460 m 906 728 l 136 728 l 136 756 l 906 756 l 906 728 m 1285 -49 l 1200 -204 l 1176 -194 l 1261 -40 l 1285 -49 m 1156 -200 l 1132 -200 l 1047 -49 l 1071 -39 l 1156 -200 m 122 769 l 99 769 l 14 919 l 38 929 l 122 769 m 219 683 l 203 494 l 175 494 l 192 683 l 219 683 m 1035 1 l 136 1 l 136 29 l 1035 29 l 1035 1 m 219 440 l 203 253 l 175 253 l 192 440 l 219 440 m 122 194 l 38 39 l 14 49 l 99 203 l 122 194 z "},"E":{"ha":1285,"x_min":3,"x_max":1356,"o":"m 1349 882 l 1267 732 l 1244 742 l 1326 889 l 1349 882 m 1232 465 l 1114 465 l 1114 493 l 1232 493 l 1232 465 m 1349 274 l 1326 274 l 1244 417 l 1267 426 l 1349 274 m 1232 697 l 621 697 l 621 724 l 1232 724 l 1232 697 m 1356 928 l 3 928 l 3 956 l 1356 956 l 1356 928 m 1349 188 l 1267 38 l 1244 47 l 1326 194 l 1349 188 m 986 465 l 743 465 l 743 493 l 986 493 l 986 465 m 1225 -44 l 1143 -193 l 1121 -183 l 1203 -36 l 1225 -44 m 1101 -189 l 1079 -189 l 997 -46 l 1019 -36 l 1101 -189 m 244 697 l 126 697 l 126 724 l 244 724 l 244 697 m 114 736 l 92 736 l 10 881 l 32 890 l 114 736 m 207 654 l 190 474 l 164 474 l 181 654 l 207 654 m 986 3 l 126 3 l 126 29 l 986 29 l 986 3 m 207 422 l 190 243 l 164 243 l 181 422 l 207 422 m 114 188 l 32 38 l 10 47 l 92 194 l 114 188 z "},"F":{"ha":968,"x_min":6,"x_max":1314,"o":"m 1307 853 l 1228 708 l 1207 718 l 1286 861 l 1307 853 m 1194 675 l 603 675 l 603 700 l 1194 700 l 1194 675 m 1314 899 l 6 899 l 6 925 l 1314 925 l 1314 899 m 956 450 l 722 450 l 722 476 l 956 476 l 956 450 m 949 265 l 926 265 l 849 404 l 869 413 l 949 265 m 949 181 l 869 38 l 849 46 l 926 189 l 949 181 m 239 675 l 125 675 l 125 700 l 239 700 l 239 675 m 113 713 l 90 713 l 13 851 l 33 861 l 113 713 m 203 633 l 188 458 l 161 458 l 176 633 l 203 633 m 829 -43 l 750 -187 l 729 -178 l 807 -35 l 829 -43 m 710 -183 l 688 -183 l 610 -44 l 631 -35 l 710 -183 m 203 410 l 188 235 l 161 235 l 176 410 l 203 410 m 597 3 l 244 3 l 244 29 l 597 29 l 597 3 m 232 42 l 210 42 l 132 181 l 153 189 l 232 42 z "},"G":{"ha":1256,"x_min":0,"x_max":1308,"o":"m 1188 856 l 1108 710 l 1086 719 l 1167 863 l 1188 856 m 1196 901 l 235 901 l 235 928 l 1196 928 l 1196 901 m 1308 261 l 1286 261 l 1207 401 l 1229 410 l 1308 261 m 1196 449 l 838 449 l 838 475 l 1196 475 l 1196 449 m 1075 675 l 476 675 l 476 701 l 1075 701 l 1075 675 m 1308 176 l 1229 31 l 1207 39 l 1288 183 l 1308 176 m 946 261 l 925 261 l 846 401 l 867 410 l 946 261 m 585 488 l 563 488 l 483 628 l 504 638 l 585 488 m 1188 -50 l 1108 -196 l 1086 -187 l 1167 -43 l 1188 -50 m 833 222 l 717 222 l 717 249 l 833 249 l 833 222 m 704 261 l 683 261 l 604 401 l 625 410 l 704 261 m 222 856 l 142 710 l 121 719 l 200 863 l 222 856 m 1067 -192 l 1046 -192 l 967 -51 l 988 -43 l 1067 -192 m 101 629 l 21 483 l 0 493 l 79 636 l 101 629 m 954 -4 l 235 -4 l 235 22 l 954 22 l 954 -4 m 101 261 l 79 261 l 0 401 l 21 410 l 101 261 m 222 35 l 200 35 l 121 175 l 142 183 l 222 35 z "},"H":{"ha":1344,"x_min":0,"x_max":1401,"o":"m 1271 765 l 1249 765 l 1164 915 l 1186 925 l 1271 765 m 1400 524 l 1378 524 l 1293 674 l 1315 683 l 1400 524 m 1150 965 l 768 965 l 768 994 l 1150 994 l 1150 965 m 1401 432 l 1315 276 l 1293 286 l 1378 440 l 1401 432 m 724 921 l 706 733 l 678 733 l 694 921 l 724 921 m 633 965 l 251 965 l 251 994 l 633 994 l 633 965 m 765 658 q 728 651 722 651 q 678 665 703 651 l 639 635 q 661 682 649 658 q 719 670 679 682 q 765 658 760 658 m 1272 190 l 1186 35 l 1164 44 l 1249 199 l 1272 190 m 746 439 q 713 294 713 306 q 654 385 653 354 l 654 438 q 674 417 664 438 q 696 375 685 396 q 728 409 714 383 q 746 439 742 435 m 238 917 l 153 761 l 129 771 l 215 925 l 238 917 m 1142 -53 l 1057 -208 l 1035 -199 l 1119 -44 l 1142 -53 m 892 -3 l 768 -3 l 768 25 l 892 25 l 892 -3 m 1013 -204 l 990 -204 l 906 -53 l 928 -43 l 1013 -204 m 724 194 l 706 6 l 678 6 l 694 194 l 724 194 m 108 675 l 24 518 l 0 529 l 86 683 l 108 675 m 633 -3 l 251 -3 l 251 25 l 633 25 l 633 -3 m 108 281 l 85 281 l 0 431 l 24 440 l 108 281 m 238 39 l 214 39 l 129 189 l 153 199 l 238 39 z "},"I":{"ha":628,"x_min":0,"x_max":636,"o":"m 636 1046 l 617 832 l 585 832 l 604 1046 l 636 1046 m 535 1096 l 103 1096 l 103 1128 l 535 1128 l 535 1096 m 636 771 l 617 558 l 585 558 l 604 771 l 636 771 m 636 497 l 617 283 l 585 283 l 604 497 l 636 497 m 51 1046 l 32 832 l 0 832 l 19 1046 l 51 1046 m 636 222 l 617 10 l 585 10 l 604 222 l 636 222 m 51 771 l 32 558 l 0 558 l 19 771 l 51 771 m 51 497 l 32 283 l 0 283 l 19 497 l 51 497 m 535 0 l 103 0 l 103 32 l 535 32 l 535 0 m 51 222 l 32 10 l 0 10 l 19 222 l 51 222 z "},"J":{"ha":1364,"x_min":3,"x_max":1369,"o":"m 1271 -3 l 138 -3 l 138 28 l 1271 28 l 1271 -3 m 1336 1153 l 1336 1153 l 1336 1153 l 1336 1153 m 1369 1017 l 1351 808 l 1319 808 l 1338 1017 l 1369 1017 m 1271 1065 l 707 1065 l 707 1097 l 1271 1097 l 1271 1065 m 1369 749 l 1351 542 l 1319 542 l 1338 749 l 1369 749 m 1369 482 l 1351 275 l 1319 275 l 1338 482 l 1369 482 m 657 1017 l 639 808 l 607 808 l 626 1017 l 657 1017 m 1369 215 l 1351 7 l 1319 7 l 1338 215 l 1369 215 m 657 749 l 639 542 l 607 542 l 626 749 l 657 749 m 657 482 l 639 275 l 607 275 l 626 482 l 657 482 m 558 264 l 279 264 l 279 296 l 558 296 l 558 264 m 265 310 l 239 310 l 146 476 l 171 486 l 265 310 m 122 478 l 28 306 l 3 317 l 96 486 l 122 478 m 122 43 l 96 43 l 3 208 l 28 219 l 122 43 z "},"K":{"ha":1156,"x_min":10,"x_max":1208,"o":"m 1208 -47 l 1125 -199 l 1103 -189 l 1186 -39 l 1208 -47 m 1149 1013 l 1149 1013 l 1149 1013 l 1149 1013 m 1178 893 l 1161 711 l 1133 711 l 1150 893 l 1178 893 m 1090 936 l 846 936 l 846 964 l 1090 964 l 1090 936 m 1090 703 l 971 703 l 971 729 l 1090 729 l 1090 703 m 833 889 l 751 739 l 729 747 l 811 897 l 833 889 m 953 526 q 860 592 925 526 q 951 658 901 633 l 890 592 l 953 526 m 678 893 l 661 711 l 635 711 l 651 893 l 678 893 m 1083 275 l 1061 275 l 979 419 l 1001 429 l 1083 275 m 592 936 l 97 936 l 97 964 l 592 964 l 592 936 m 1208 40 l 1185 40 l 1104 186 l 1125 194 l 1208 40 m 678 425 l 661 243 l 635 243 l 651 425 l 678 425 m 1083 -193 l 1061 -193 l 979 -49 l 1001 -39 l 1083 -193 m 967 0 l 722 0 l 722 28 l 967 28 l 967 0 m 54 893 l 38 711 l 10 711 l 26 893 l 54 893 m 678 190 l 661 8 l 635 8 l 651 190 l 678 190 m 54 660 l 38 478 l 10 478 l 26 660 l 54 660 m 54 425 l 38 243 l 10 243 l 26 425 l 54 425 m 592 0 l 97 0 l 97 28 l 592 28 l 592 0 m 54 190 l 38 8 l 10 8 l 26 190 l 54 190 z "},"L":{"ha":1185,"x_min":6,"x_max":1260,"o":"m 1260 -50 l 1174 -207 l 1150 -197 l 1236 -42 l 1260 -50 m 706 935 l 688 744 l 660 744 l 676 935 l 706 935 m 614 981 l 97 981 l 97 1008 l 614 1008 l 614 981 m 1260 42 l 1236 42 l 1150 194 l 1174 204 l 1260 42 m 706 690 l 688 500 l 660 500 l 676 690 l 706 690 m 1138 246 l 751 246 l 751 274 l 1138 274 l 1138 246 m 706 444 l 688 254 l 660 254 l 676 444 l 706 444 m 1129 -203 l 1106 -203 l 1019 -51 l 1043 -42 l 1129 -203 m 51 935 l 35 744 l 6 744 l 22 935 l 51 935 m 51 690 l 35 500 l 6 500 l 22 690 l 51 690 m 1007 0 l 97 0 l 97 29 l 1007 29 l 1007 0 m 51 444 l 35 254 l 6 254 l 22 444 l 51 444 m 51 200 l 35 10 l 6 10 l 22 200 l 51 200 z "},"M":{"ha":1389,"x_min":6,"x_max":1422,"o":"m 1161 776 l 1138 776 l 1051 929 l 1075 939 l 1161 776 m 1039 979 l 783 979 l 783 1008 l 1039 1008 l 1039 979 m 1292 532 l 1268 532 l 1182 683 l 1206 693 l 1292 532 m 1422 286 l 1399 286 l 1313 439 l 1336 449 l 1422 286 m 646 979 l 390 979 l 390 1008 l 646 1008 l 646 979 m 1422 194 l 1336 38 l 1313 47 l 1399 203 l 1422 194 m 900 685 l 814 528 l 790 538 l 876 693 l 900 685 m 639 532 l 614 532 l 529 683 l 551 693 l 639 532 m 376 931 l 290 772 l 268 782 l 353 939 l 376 931 m 1292 -50 l 1222 -175 l 1199 -165 l 1268 -42 l 1292 -50 m 760 446 q 726 300 726 311 q 667 392 665 361 l 667 444 q 688 424 678 444 q 708 381 699 403 q 742 416 728 390 q 760 446 756 442 m 1144 -171 l 1121 -171 l 1051 -51 l 1075 -42 l 1144 -171 m 1039 0 l 783 0 l 783 28 l 1039 28 l 1039 0 m 738 199 l 719 8 l 692 8 l 708 199 l 738 199 m 246 685 l 160 528 l 136 538 l 222 693 l 246 685 m 115 440 l 29 282 l 6 292 l 92 449 l 115 440 m 646 0 l 129 0 l 129 28 l 646 28 l 646 0 m 115 42 l 92 42 l 6 193 l 29 203 l 115 42 z "},"N":{"ha":1389,"x_min":7,"x_max":1531,"o":"m 1250 836 l 1224 836 l 1132 1000 l 1157 1011 l 1250 836 m 1390 572 l 1364 572 l 1272 736 l 1297 747 l 1390 572 m 1531 308 l 1506 308 l 1413 472 l 1438 483 l 1531 308 m 1531 210 l 1438 40 l 1413 51 l 1506 219 l 1531 210 m 1072 1054 l 139 1054 l 139 1085 l 1068 1086 l 1072 1054 m 793 742 l 775 538 l 744 538 l 763 742 l 793 742 m 1390 -54 l 1297 -224 l 1272 -212 l 1365 -44 l 1390 -54 m 793 479 l 775 274 l 744 274 l 763 479 l 793 479 m 265 836 l 239 836 l 147 1000 l 172 1011 l 265 836 m 1250 -218 l 1224 -218 l 1132 -56 l 1157 -44 l 1250 -218 m 1118 0 l 842 0 l 842 31 l 1118 31 l 1118 0 m 793 215 l 775 10 l 744 10 l 763 215 l 793 215 m 265 738 l 172 568 l 147 579 l 239 746 l 265 738 m 125 474 l 32 304 l 7 315 l 99 482 l 125 474 m 696 0 l 139 0 l 139 31 l 696 31 l 696 0 m 124 46 l 99 46 l 7 208 l 32 219 l 124 46 z "},"O":{"ha":1428,"x_min":6,"x_max":1482,"o":"m 1083 1021 l 954 1021 l 954 1050 l 1083 1050 l 1083 1021 m 1211 810 l 1186 810 l 1097 968 l 1121 978 l 1211 810 m 1346 556 l 1321 556 l 1233 714 l 1257 724 l 1346 556 m 1482 301 l 1457 301 l 1368 460 l 1392 469 l 1482 301 m 1482 207 l 1392 43 l 1368 54 l 1457 215 l 1482 207 m 676 1021 l 6 1021 l 6 1050 l 676 1050 l 676 1021 m 771 719 l 753 522 l 724 522 l 742 719 l 771 719 m 813 767 l 140 767 l 140 796 l 813 796 l 813 767 m 1346 -47 l 1257 -211 l 1233 -200 l 1322 -39 l 1346 -47 m 771 465 l 753 268 l 724 268 l 742 465 l 771 465 m 1211 -206 l 1186 -206 l 1097 -49 l 1121 -39 l 1211 -206 m 126 810 l 103 810 l 14 968 l 38 978 l 126 810 m 263 715 l 172 551 l 149 563 l 238 724 l 263 715 m 1083 4 l 140 4 l 140 33 l 1083 33 l 1083 4 m 126 461 l 38 297 l 14 308 l 103 469 l 126 461 m 126 49 l 103 49 l 14 206 l 38 215 l 126 49 z "},"P":{"ha":1385,"x_min":6,"x_max":1500,"o":"m 1500 815 l 1475 815 l 1385 975 l 1410 985 l 1500 815 m 1500 718 l 1410 553 l 1385 564 l 1475 728 l 1500 718 m 1371 1028 l 6 1028 l 6 1058 l 1371 1058 l 1371 1028 m 1371 514 l 965 514 l 965 544 l 1371 544 l 1371 514 m 960 771 l 143 771 l 143 801 l 960 801 l 960 771 m 918 467 l 900 267 l 869 267 l 888 467 l 918 467 m 918 210 l 900 10 l 869 10 l 888 210 l 918 210 m 128 815 l 103 815 l 14 975 l 38 985 l 128 815 m 232 724 l 214 524 l 183 524 l 201 724 l 232 724 m 232 467 l 214 267 l 183 267 l 201 467 l 232 467 m 822 0 l 279 0 l 279 29 l 822 29 l 822 0 m 232 210 l 214 10 l 183 10 l 201 210 l 232 210 z "},"Q":{"ha":1421,"x_min":7,"x_max":1501,"o":"m 1372 -253 l 1104 -253 l 1104 -222 l 1372 -222 l 1372 -253 m 1226 821 l 1201 821 l 1113 981 l 1136 990 l 1226 821 m 1364 564 l 1339 564 l 1249 722 l 1274 733 l 1364 564 m 1501 306 l 1476 306 l 1386 465 l 1411 476 l 1501 306 m 1099 1033 l 7 1033 l 7 1064 l 1099 1064 l 1099 1033 m 1501 210 l 1411 44 l 1386 54 l 1476 218 l 1501 210 m 953 564 l 928 564 l 838 722 l 863 733 l 953 564 m 1024 346 l 1024 346 l 1024 346 l 1024 346 m 1372 4 l 1242 4 l 1242 35 l 1372 35 l 1372 4 m 1496 -117 q 1394 -190 1450 -162 l 1461 -117 l 1393 -46 q 1496 -117 1424 -46 m 1226 49 l 1201 49 l 1113 208 l 1136 218 l 1226 49 m 953 467 l 863 301 l 838 313 l 928 475 l 953 467 m 824 776 l 144 776 l 144 806 l 824 806 l 824 776 m 678 724 l 588 558 l 564 569 l 653 733 l 678 724 m 824 263 l 693 263 l 693 292 l 824 292 l 824 263 m 953 49 l 928 49 l 838 208 l 863 218 l 953 49 m 678 306 l 653 306 l 564 465 l 588 476 l 678 306 m 129 821 l 104 821 l 15 981 l 39 990 l 129 821 m 1090 -208 l 1065 -208 l 975 -49 l 999 -39 l 1090 -208 m 267 724 l 176 558 l 151 569 l 242 733 l 267 724 m 824 4 l 144 4 l 144 35 l 824 35 l 824 4 m 129 467 l 39 301 l 15 313 l 104 475 l 129 467 m 129 49 l 104 49 l 15 208 l 39 218 l 129 49 z "},"R":{"ha":1425,"x_min":4,"x_max":1490,"o":"m 1490 822 l 1465 822 l 1375 982 l 1400 992 l 1490 822 m 1490 726 l 1400 560 l 1375 571 l 1465 735 l 1490 726 m 1361 521 l 1231 521 l 1231 551 l 1361 551 l 1361 521 m 1490 308 l 1465 308 l 1375 468 l 1400 478 l 1490 308 m 1361 1035 l 133 1035 l 133 1065 l 1361 1065 l 1361 1035 m 1490 211 l 1400 46 l 1375 57 l 1465 221 l 1490 211 m 950 778 l 133 778 l 133 808 l 950 808 l 950 778 m 908 474 l 890 274 l 860 274 l 878 474 l 908 474 m 1353 -46 l 1263 -211 l 1238 -200 l 1328 -37 l 1353 -46 m 1088 7 l 956 7 l 956 36 l 1088 36 l 1088 7 m 1215 -207 l 1190 -207 l 1101 -47 l 1125 -36 l 1215 -207 m 908 217 l 890 17 l 860 17 l 878 217 l 908 217 m 118 822 l 93 822 l 4 982 l 28 992 l 118 822 m 222 731 l 204 531 l 174 531 l 192 731 l 222 731 m 222 474 l 204 274 l 174 274 l 192 474 l 222 474 m 813 7 l 269 7 l 269 36 l 813 36 l 813 7 m 222 217 l 204 17 l 174 17 l 192 217 l 222 217 z "},"S":{"ha":1417,"x_min":-3,"x_max":1483,"o":"m 1483 981 l 1393 815 l 1368 825 l 1458 989 l 1483 981 m 1346 563 l 1321 563 l 1232 722 l 1256 732 l 1346 563 m 1483 306 l 1458 306 l 1368 465 l 1393 475 l 1483 306 m 1356 775 l 675 775 l 675 806 l 1356 806 l 1356 775 m 1444 1035 l 264 1032 l 264 1063 l 1449 1063 l 1444 1035 m 1483 208 l 1393 43 l 1368 54 l 1458 218 l 1483 208 m 1346 -49 l 1256 -214 l 1232 -203 l 1322 -40 l 1346 -49 m 943 518 l 264 518 l 264 549 l 943 549 l 943 518 m 249 981 l 158 815 l 135 825 l 225 989 l 249 981 m 1210 -210 l 1185 -210 l 1094 -50 l 1118 -39 l 1210 -210 m 249 563 l 224 563 l 135 722 l 158 732 l 249 563 m 1081 4 l 126 4 l 126 33 l 1081 33 l 1081 4 m 249 465 l 158 300 l 135 311 l 225 475 l 249 465 m 113 208 l 21 43 l -3 54 l 88 218 l 113 208 z "},"T":{"ha":1399,"x_min":-7,"x_max":1507,"o":"m 1499 975 l 1408 810 l 1383 819 l 1474 983 l 1499 975 m 1371 769 l 964 769 l 964 800 l 1371 800 l 1371 769 m 1507 1026 l 4 1026 l 4 1057 l 1507 1057 l 1507 1026 m 1054 722 l 1036 522 l 1006 522 l 1024 722 l 1054 722 m 1054 465 l 1036 265 l 1006 265 l 1024 465 l 1054 465 m 1054 208 l 1036 8 l 1006 8 l 1024 208 l 1054 208 m 410 769 l 142 769 l 142 800 l 410 800 l 410 769 m 128 814 l 103 814 l 13 974 l 36 983 l 128 814 m 368 722 l 350 522 l 321 522 l 338 722 l 368 722 m 368 465 l 350 265 l 321 265 l 338 465 l 368 465 m 958 -1 l 415 -1 l 415 28 l 958 28 l 958 -1 m 24 -258 l -7 -258 l 24 -258 m 368 208 l 350 8 l 321 8 l 338 208 l 368 208 z "},"U":{"ha":1204,"x_min":3,"x_max":1407,"o":"m 1407 803 l 1381 803 l 1285 960 l 1311 969 l 1407 803 m 1269 1011 l 838 1011 l 838 1042 l 1269 1042 l 1269 1011 m 1407 708 l 1311 546 l 1285 556 l 1381 717 l 1407 708 m 786 965 l 767 769 l 735 769 l 754 965 l 786 965 m 1261 456 l 1164 293 l 1139 304 l 1235 464 l 1261 456 m 685 1011 l 106 1011 l 106 1042 l 685 1042 l 685 1011 m 786 713 l 767 517 l 735 517 l 754 713 l 786 713 m 1115 203 l 1018 40 l 992 51 l 1089 211 l 1115 203 m 786 460 l 767 264 l 735 264 l 754 460 l 786 460 m 54 965 l 35 769 l 3 769 l 22 965 l 54 965 m 54 713 l 35 517 l 3 517 l 22 713 l 54 713 m 978 1 l 106 1 l 106 32 l 978 32 l 978 1 m 54 460 l 35 264 l 3 264 l 22 460 l 54 460 m 54 208 l 35 11 l 3 11 l 22 208 l 54 208 z "},"V":{"ha":1200,"x_min":3,"x_max":1479,"o":"m 1471 967 l 1382 803 l 1357 814 l 1447 975 l 1471 967 m 1479 1018 l 943 1018 l 943 1047 l 1479 1047 l 1479 1018 m 1336 713 l 1246 549 l 1222 560 l 1311 721 l 1336 713 m 929 967 l 839 803 l 815 814 l 904 975 l 929 967 m 1200 458 l 1111 294 l 1086 306 l 1175 467 l 1200 458 m 658 808 l 633 808 l 544 965 l 568 976 l 658 808 m 783 719 q 749 568 749 579 q 688 663 686 631 l 688 718 q 710 697 699 718 q 732 651 721 675 q 764 686 751 663 q 783 719 779 715 m 531 1018 l 131 1018 l 131 1047 l 531 1047 l 531 1018 m 1065 204 l 975 42 l 951 51 l 1040 213 l 1065 204 m 117 808 l 92 808 l 3 965 l 26 976 l 117 808 m 251 554 l 226 554 l 138 711 l 163 722 l 251 554 m 938 3 l 536 3 l 536 32 l 938 32 l 938 3 m 388 300 l 363 300 l 274 457 l 297 468 l 388 300 m 522 46 l 499 46 l 410 203 l 433 214 l 522 46 z "},"W":{"ha":1260,"x_min":-8,"x_max":1453,"o":"m 1453 731 l 1431 731 l 1349 875 l 1371 885 l 1453 731 m 1336 922 l 1094 922 l 1094 950 l 1336 950 l 1336 922 m 1453 644 l 1371 496 l 1349 506 l 1431 653 l 1453 644 m 1082 876 l 1000 726 l 979 736 l 1060 883 l 1082 876 m 1329 413 l 1247 264 l 1226 274 l 1307 421 l 1329 413 m 958 644 l 878 496 l 856 506 l 936 653 l 958 644 m 835 500 l 813 500 l 732 643 l 754 653 l 835 500 m 1206 182 l 1124 32 l 1103 42 l 1183 189 l 1206 182 m 713 644 l 631 496 l 608 506 l 690 653 l 713 644 m 465 731 l 443 731 l 361 875 l 383 885 l 465 731 m 349 922 l 107 922 l 107 950 l 349 950 l 349 922 m 589 500 l 567 500 l 485 643 l 507 653 l 589 500 m 1082 -50 l 1000 -199 l 979 -189 l 1060 -42 l 1082 -50 m 835 38 l 813 38 l 732 181 l 754 190 l 835 38 m 94 876 l 13 726 l -8 736 l 72 883 l 94 876 m 958 -194 l 936 -194 l 856 -51 l 878 -42 l 958 -194 m 713 182 l 631 32 l 608 42 l 690 189 l 713 182 m 94 500 l 72 500 l -8 643 l 14 653 l 94 500 m 218 268 l 196 268 l 115 411 l 136 421 l 218 268 m 596 -3 l 354 -3 l 354 24 l 596 24 l 596 -3 m 342 38 l 319 38 l 239 181 l 260 190 l 342 38 z "},"X":{"ha":1051,"x_min":10,"x_max":1103,"o":"m 1103 915 l 742 915 l 742 942 l 1103 942 l 1103 915 m 1096 868 l 1015 721 l 993 731 l 1074 876 l 1096 868 m 974 639 l 893 492 l 871 501 l 951 647 l 974 639 m 729 868 l 649 721 l 626 731 l 707 876 l 729 868 m 607 725 l 585 725 l 506 867 l 526 876 l 607 725 m 974 268 l 951 268 l 871 410 l 893 418 l 974 268 m 493 915 l 10 915 l 10 942 l 493 942 l 493 915 m 1096 39 l 1074 39 l 993 181 l 1015 190 l 1096 39 m 1096 -47 l 1015 -194 l 993 -185 l 1074 -40 l 1096 -47 m 119 725 l 97 725 l 17 867 l 39 876 l 119 725 m 729 39 l 707 39 l 626 181 l 649 190 l 729 39 m 240 496 l 218 496 l 139 639 l 160 647 l 240 496 m 981 -229 l 864 -229 l 864 -203 l 981 -203 l 981 -229 m 851 -190 l 829 -190 l 749 -49 l 771 -39 l 851 -190 m 607 182 l 526 35 l 506 43 l 585 189 l 607 182 m 242 411 l 160 263 l 139 272 l 219 418 l 242 411 m 493 -1 l 132 -1 l 132 26 l 493 26 l 493 -1 m 119 182 l 38 35 l 17 43 l 97 189 l 119 182 z "},"Y":{"ha":1213,"x_min":1,"x_max":1221,"o":"m 368 -50 l 285 -203 l 263 -193 l 344 -42 l 368 -50 m 242 -197 l 218 -197 l 136 -51 l 158 -42 l 242 -197 m 1190 1022 l 1190 1022 l 1190 1022 l 1190 1022 m 1221 901 l 1204 717 l 1176 717 l 1193 901 l 1221 901 m 1133 944 l 760 944 l 760 972 l 1133 972 l 1133 944 m 1221 665 l 1204 481 l 1176 481 l 1193 665 l 1221 665 m 686 1022 l 686 1022 l 686 1022 l 686 1022 m 1221 428 l 1204 244 l 1176 244 l 1193 428 l 1221 428 m 715 901 l 699 717 l 671 717 l 688 901 l 715 901 m 1221 192 l 1204 7 l 1176 7 l 1193 192 l 1221 192 m 628 944 l 1 944 l 1 972 l 628 972 l 628 944 m 715 665 l 699 481 l 671 481 l 688 665 l 715 665 m 375 708 l 128 708 l 128 736 l 375 736 l 375 708 m 115 749 l 92 749 l 10 896 l 32 906 l 115 749 m 242 660 l 158 508 l 136 518 l 218 668 l 242 660 m 1133 -1 l 381 -1 l 381 26 l 1133 26 l 1133 -1 m 754 235 l 254 235 l 254 263 l 754 263 l 754 235 m 242 275 l 218 275 l 136 422 l 158 432 l 242 275 m 242 186 l 158 35 l 136 44 l 218 194 l 242 186 z "},"Z":{"ha":1144,"x_min":11,"x_max":1214,"o":"m 1206 861 l 1126 715 l 1106 725 l 1185 869 l 1206 861 m 1085 635 l 1006 489 l 985 499 l 1064 643 l 1085 635 m 1214 907 l 11 907 l 11 935 l 1214 935 l 1214 907 m 1093 228 l 978 228 l 978 254 l 1093 254 l 1093 228 m 1206 40 l 1185 40 l 1106 181 l 1126 190 l 1206 40 m 965 408 l 885 263 l 864 272 l 943 417 l 965 408 m 610 681 l 132 681 l 132 707 l 610 707 l 610 681 m 1206 -44 l 1126 -190 l 1106 -181 l 1185 -36 l 1206 -44 m 1085 -186 l 1064 -186 l 985 -46 l 1006 -36 l 1085 -186 m 361 635 l 281 489 l 260 499 l 339 643 l 361 635 m 119 721 l 97 721 l 18 861 l 39 869 l 119 721 m 972 1 l 132 1 l 132 28 l 972 28 l 972 1 m 240 408 l 160 263 l 139 272 l 218 417 l 240 408 m 119 182 l 39 36 l 18 46 l 97 190 l 119 182 z "},"[":{"ha":704,"x_min":1,"x_max":671,"o":"m 671 1039 l 325 1039 l 325 1063 l 671 1063 l 671 1039 m 663 996 l 586 864 l 565 872 l 642 1004 l 663 996 m 546 789 l 469 657 l 449 665 l 525 797 l 546 789 m 313 996 l 236 864 l 215 872 l 292 1004 l 313 996 m 410 440 q 369 469 388 447 q 351 513 351 490 q 408 585 351 558 q 381 513 381 567 q 410 440 381 457 m 196 789 l 119 657 l 99 665 l 175 797 l 196 789 m 546 246 l 525 246 l 449 375 l 469 383 l 546 246 m 663 39 l 642 39 l 565 168 l 586 176 l 663 39 m 60 440 q 19 469 38 447 q 1 513 1 490 q 58 585 1 558 q 31 513 31 567 q 60 440 31 457 m 196 246 l 175 246 l 99 375 l 119 383 l 196 246 m 554 4 l 325 4 l 325 28 l 554 28 l 554 4 m 313 39 l 292 39 l 215 168 l 236 176 l 313 39 z "},"\\":{"ha":553,"x_min":33,"x_max":594,"o":"m 594 186 l 578 186 l 514 79 l 531 72 l 594 186 m 499 79 l 435 189 l 418 182 l 481 74 l 499 79 m 594 250 l 531 360 l 514 353 l 578 244 l 594 250 m 403 250 l 339 360 l 322 353 l 385 244 l 403 250 m 499 421 l 435 531 l 418 524 l 481 414 l 499 421 m 306 421 l 242 531 l 225 524 l 289 414 l 306 421 m 403 592 l 339 701 l 322 694 l 385 585 l 403 592 m 210 592 l 146 701 l 129 694 l 192 585 l 210 592 m 306 763 l 242 872 l 225 865 l 289 756 l 306 763 m 114 763 l 50 872 l 33 865 l 96 756 l 114 763 m 210 932 l 146 1043 l 129 1036 l 192 926 l 210 932 m 114 1039 l 96 1039 l 33 933 l 50 926 l 114 1039 z "},"]":{"ha":614,"x_min":15,"x_max":589,"o":"m 403 789 l 385 789 l 319 904 l 338 913 l 403 789 m 503 603 l 485 603 l 419 718 l 436 725 l 503 603 m 310 943 l 15 943 l 15 965 l 310 965 l 310 943 m 104 789 l 86 789 l 21 904 l 39 913 l 104 789 m 204 603 l 186 603 l 121 718 l 138 725 l 204 603 m 503 346 l 436 225 l 419 233 l 485 351 l 503 346 m 403 160 l 338 39 l 319 47 l 385 165 l 403 160 m 204 346 l 138 225 l 121 233 l 186 351 l 204 346 m 310 11 l 115 11 l 115 32 l 310 32 l 310 11 m 104 160 l 39 39 l 21 47 l 86 165 l 104 160 m 403 789 l 338 913 l 319 904 l 385 789 l 403 789 m 503 603 l 436 725 l 419 718 l 485 603 l 503 603 m 310 943 l 310 965 l 15 965 l 15 943 l 310 943 m 104 789 l 39 913 l 21 904 l 86 789 l 104 789 m 204 603 l 138 725 l 121 718 l 186 603 l 204 603 m 503 346 l 485 351 l 419 233 l 436 225 l 503 346 m 403 160 l 385 165 l 319 47 l 338 39 l 403 160 m 204 346 l 186 351 l 121 233 l 138 225 l 204 346 m 310 11 l 310 32 l 115 32 l 115 11 l 310 11 m 104 160 l 86 165 l 21 47 l 39 39 l 104 160 m 561 504 l 565 461 l 550 429 l 532 410 l 558 414 l 574 435 l 589 465 l 582 497 l 574 525 l 538 531 l 561 504 m 561 504 l 565 461 l 550 429 l 532 410 l 558 414 l 574 435 l 589 465 l 582 497 l 574 525 l 538 531 l 561 504 m 256 504 l 258 461 l 243 429 l 225 410 l 251 414 l 267 435 l 282 465 l 276 497 l 267 525 l 231 531 l 256 504 m 256 504 l 258 461 l 243 429 l 225 410 l 251 414 l 267 435 l 282 465 l 276 497 l 267 525 l 231 531 l 256 504 z "},"_":{"ha":1389,"x_min":8,"x_max":1389,"o":"m 1376 307 l 1244 61 l 1208 76 l 1340 321 l 1376 307 m 1389 385 l 197 385 l 197 431 l 1389 431 l 1389 385 m 1189 1 l 197 1 l 197 46 l 1189 46 l 1189 1 m 176 307 l 44 61 l 8 76 l 140 321 l 176 307 z "},"a":{"ha":1044,"x_min":-1,"x_max":1118,"o":"m 828 579 l 801 579 l 710 742 l 735 753 l 828 579 m 1118 269 l 983 269 l 983 300 l 1118 300 l 1118 269 m 968 315 l 943 315 l 850 478 l 875 489 l 968 315 m 1108 215 l 1015 46 l 992 57 l 1083 225 l 1108 215 m 696 797 l -1 797 l -1 828 l 696 828 l 696 797 m 696 269 l 421 269 l 421 300 l 696 300 l 696 269 m 414 533 l 139 533 l 139 564 l 414 564 l 414 533 m 968 -47 l 875 -218 l 850 -207 l 943 -39 l 968 -47 m 124 579 l 99 579 l 7 742 l 32 753 l 124 579 m 828 -212 l 801 -212 l 710 -49 l 735 -39 l 828 -212 m 265 479 l 172 310 l 147 321 l 239 489 l 265 479 m 696 6 l 139 6 l 139 36 l 696 36 l 696 6 z "},"b":{"ha":836,"x_min":-142,"x_max":879,"o":"m 750 -50 l 664 -206 l 642 -196 l 726 -42 l 750 -50 m 300 1047 l 300 1047 l 300 1047 l 300 1047 m 750 526 l 726 526 l 642 676 l 665 686 l 750 526 m 629 726 l 376 726 l 376 754 l 629 754 l 629 726 m 879 283 l 856 283 l 771 433 l 794 443 l 879 283 m 331 924 l 314 736 l 286 736 l 303 924 l 331 924 m 242 968 l -142 968 l -142 997 l 242 997 l 242 968 m 879 193 l 793 38 l 771 47 l 856 201 l 879 193 m 621 283 l 597 283 l 513 433 l 535 443 l 621 283 m 500 485 l 247 485 l 247 513 l 500 513 l 500 485 m 113 726 l -12 726 l -12 754 l 113 754 l 113 726 m -25 768 l -49 768 l -133 918 l -111 928 l -25 768 m 500 242 l 375 242 l 375 269 l 500 269 l 500 242 m 363 283 l 339 283 l 254 433 l 276 443 l 363 283 m 72 682 l 56 493 l 28 493 l 44 682 l 72 682 m 621 -201 l 597 -201 l 513 -50 l 535 -40 l 621 -201 m 72 439 l 56 251 l 28 251 l 44 439 l 72 439 m 500 0 l 118 0 l 118 28 l 500 28 l 500 0 z "},"c":{"ha":1044,"x_min":7,"x_max":1071,"o":"m 942 554 l 917 554 l 828 711 l 853 721 l 942 554 m 814 764 l 278 764 l 278 793 l 814 793 l 814 764 m 1071 136 q 971 63 1026 90 l 1038 135 l 971 207 q 1071 136 1000 207 m 814 510 l 414 510 l 414 539 l 814 539 l 814 510 m 950 256 l 549 256 l 549 285 l 950 285 l 950 256 m 535 300 l 511 300 l 422 457 l 446 467 l 535 300 m 264 713 l 175 549 l 150 560 l 240 721 l 264 713 m 942 -50 l 851 -214 l 828 -203 l 917 -42 l 942 -50 m 806 -208 l 782 -208 l 693 -51 l 717 -40 l 806 -208 m 138 510 l 7 510 l 7 539 l 138 539 l 138 510 m 679 1 l 278 1 l 278 32 l 679 32 l 679 1 m 129 300 l 104 300 l 15 457 l 39 467 l 129 300 m 264 46 l 239 46 l 150 203 l 175 214 l 264 46 z "},"d":{"ha":836,"x_min":-4,"x_max":971,"o":"m 840 -50 l 758 -199 l 736 -189 l 818 -42 l 840 -50 m 971 922 l 606 922 l 606 950 l 971 950 l 971 922 m 964 876 l 882 726 l 860 736 l 942 883 l 964 876 m 533 999 l 533 999 l 533 999 l 533 999 m 847 692 l 729 692 l 729 718 l 847 718 l 847 692 m 810 649 l 793 468 l 767 468 l 783 649 l 810 649 m 563 881 l 547 700 l 519 700 l 536 881 l 563 881 m 810 417 l 793 238 l 767 238 l 783 417 l 810 417 m 478 692 l 236 692 l 236 718 l 478 718 l 478 692 m 601 460 l 360 460 l 360 488 l 601 488 l 601 460 m 810 186 l 793 6 l 767 6 l 783 186 l 810 186 m 593 413 l 511 264 l 490 274 l 571 421 l 593 413 m 222 644 l 142 496 l 119 506 l 200 653 l 222 644 m 478 229 l 358 229 l 358 256 l 478 256 l 478 229 m 346 413 l 265 264 l 243 274 l 324 421 l 346 413 m 717 -194 l 694 -194 l 613 -51 l 635 -42 l 717 -194 m 100 413 l 18 264 l -4 274 l 76 421 l 100 413 m 601 -3 l 113 -3 l 113 24 l 601 24 l 601 -3 z "},"e":{"ha":1119,"x_min":1,"x_max":1150,"o":"m 1010 597 l 983 597 l 888 767 l 914 778 l 1010 597 m 872 824 l 294 824 l 294 856 l 872 856 l 872 824 m 1010 494 l 913 318 l 888 329 l 983 503 l 1010 494 m 1150 146 q 1042 68 1101 97 l 1114 146 l 1040 222 q 1150 146 1074 222 m 726 550 l 440 550 l 440 582 l 726 582 l 726 550 m 872 275 l 440 275 l 440 307 l 872 307 l 872 275 m 279 768 l 182 592 l 157 603 l 253 778 l 279 768 m 1010 -54 l 913 -231 l 888 -219 l 983 -44 l 1010 -54 m 864 -225 l 838 -225 l 742 -56 l 767 -44 l 864 -225 m 142 550 l 1 550 l 1 582 l 142 582 l 142 550 m 726 1 l 294 1 l 294 33 l 726 33 l 726 1 m 132 322 l 106 322 l 10 493 l 36 504 l 132 322 m 279 49 l 253 49 l 157 218 l 182 229 l 279 49 z "},"f":{"ha":515,"x_min":-137,"x_max":860,"o":"m 860 760 l 838 760 l 754 906 l 776 915 l 860 760 m 742 956 l 115 956 l 115 983 l 742 983 l 742 956 m 733 522 l 711 522 l 628 669 l 650 679 l 733 522 m 742 718 l 242 718 l 242 746 l 742 746 l 742 718 m 615 482 l 368 482 l 368 510 l 615 510 l 615 482 m 103 907 l 19 754 l -3 764 l 79 915 l 103 907 m 450 438 l 433 254 l 407 254 l 422 438 l 450 438 m -15 718 l -137 718 l -137 746 l -15 746 l -15 718 m 450 201 l 433 17 l 407 17 l 422 201 l 450 201 m -24 522 l -47 522 l -129 669 l -107 679 l -24 522 m 71 438 l 56 254 l 28 254 l 44 438 l 71 438 m 363 8 l 115 8 l 115 36 l 363 36 l 363 8 z "},"g":{"ha":1008,"x_min":-129,"x_max":1157,"o":"m 1017 596 l 990 596 l 894 767 l 919 778 l 1017 596 m 1157 419 q 1049 340 1107 371 l 1119 419 l 1047 496 q 1157 419 1079 496 m 879 824 l 300 824 l 300 856 l 879 856 l 879 824 m 879 549 l 447 549 l 447 581 l 879 581 l 879 549 m 1017 219 l 919 43 l 894 54 l 990 229 l 1017 219 m 724 493 l 628 317 l 601 328 l 697 503 l 724 493 m 286 768 l 189 592 l 163 603 l 258 776 l 286 768 m 588 275 l 447 275 l 447 307 l 588 307 l 588 275 m 432 493 l 335 317 l 310 328 l 406 503 l 432 493 m 871 -56 l 774 -232 l 747 -219 l 843 -46 l 871 -56 m 139 493 l 43 317 l 17 328 l 113 503 l 139 493 m 586 1 l 154 1 l 154 33 l 586 33 l 586 1 m 733 -274 l 8 -274 l 8 -242 l 733 -242 l 733 -274 m -7 -56 l -104 -232 l -129 -219 l -33 -46 l -7 -56 z "},"h":{"ha":928,"x_min":8,"x_max":968,"o":"m 842 -36 l 758 -189 l 735 -179 l 818 -28 l 842 -36 m 842 526 l 818 526 l 735 674 l 758 682 l 842 526 m 722 722 l 475 722 l 475 750 l 722 750 l 722 722 m 968 289 l 944 289 l 861 436 l 885 446 l 968 289 m 432 915 l 415 731 l 388 731 l 404 915 l 432 915 m 344 958 l 97 958 l 97 986 l 344 986 l 344 958 m 24 1036 l 24 1036 l 24 1036 l 24 1036 m 968 200 l 883 49 l 861 58 l 944 208 l 968 200 m 432 679 l 415 494 l 388 494 l 404 679 l 432 679 m 579 443 q 547 303 547 314 q 490 392 489 361 l 490 442 q 510 422 500 442 q 531 381 521 403 q 561 413 549 390 q 579 443 575 440 m 53 915 l 36 731 l 8 731 l 25 915 l 53 915 m 557 206 l 542 21 l 514 21 l 531 206 l 557 206 m 53 679 l 36 494 l 8 494 l 25 679 l 53 679 m 715 -183 l 692 -183 l 610 -37 l 632 -28 l 715 -183 m 53 442 l 36 258 l 8 258 l 25 442 l 53 442 m 471 13 l 97 13 l 97 40 l 471 40 l 471 13 z "},"i":{"ha":471,"x_min":0,"x_max":465,"o":"m 368 -3 l 97 -3 l 97 26 l 368 26 l 368 -3 m 465 990 l 447 788 l 417 788 l 435 990 l 465 990 m 368 1039 l 97 1039 l 97 1068 l 368 1068 l 368 1039 m 15 1124 l 15 1124 l 15 1124 l 15 1124 m 465 729 l 447 528 l 417 528 l 435 729 l 465 729 m 368 778 l 97 778 l 97 808 l 368 808 l 368 778 m 49 990 l 31 788 l 0 788 l 18 990 l 49 990 m 465 469 l 447 267 l 417 267 l 435 469 l 465 469 m 49 729 l 31 528 l 0 528 l 18 729 l 49 729 m 465 208 l 447 7 l 417 7 l 435 208 l 465 208 m 49 469 l 31 267 l 0 267 l 18 469 l 49 469 m 49 208 l 31 7 l 0 7 l 18 208 l 49 208 z "},"j":{"ha":892,"x_min":28,"x_max":897,"o":"m 897 894 l 882 728 l 857 728 l 872 894 l 897 894 m 818 935 l 593 935 l 593 960 l 818 960 l 818 935 m 897 681 l 882 513 l 857 513 l 872 681 l 897 681 m 818 719 l 593 719 l 593 744 l 818 744 l 818 719 m 554 894 l 539 728 l 514 728 l 529 894 l 554 894 m 897 465 l 882 299 l 857 299 l 872 465 l 897 465 m 554 681 l 539 513 l 514 513 l 529 681 l 554 681 m 897 250 l 882 83 l 857 83 l 872 250 l 897 250 m 554 465 l 539 299 l 514 299 l 529 465 l 554 465 m 897 36 l 882 -132 l 857 -132 l 872 36 l 897 36 m 554 250 l 539 83 l 514 83 l 529 250 l 554 250 m 475 75 l 250 75 l 250 100 l 475 100 l 475 75 m 239 113 l 218 113 l 142 246 l 163 254 l 239 113 m 818 -139 l 136 -139 l 136 -114 l 818 -114 l 818 -139 m 124 246 l 49 108 l 28 117 l 103 254 l 124 246 m 124 -103 l 103 -103 l 28 31 l 49 39 l 124 -103 z "},"k":{"ha":796,"x_min":-17,"x_max":853,"o":"m 853 743 l 597 743 l 597 771 l 853 771 l 853 743 m 844 693 l 758 535 l 735 546 l 821 701 l 844 693 m 421 943 l 403 751 l 375 751 l 392 943 l 421 943 m 329 988 l 74 988 l 74 1017 l 329 1017 l 329 988 m 583 693 l 497 535 l 474 546 l 560 701 l 583 693 m 707 313 q 610 382 679 313 q 707 451 654 425 l 643 382 l 707 313 m 421 697 l 403 507 l 375 507 l 392 697 l 421 697 m 844 50 l 821 50 l 735 201 l 758 211 l 844 50 m 28 943 l 11 751 l -17 751 l 0 943 l 28 943 m 844 -43 l 758 -200 l 735 -190 l 821 -35 l 844 -43 m 28 697 l 11 507 l -17 507 l 0 697 l 28 697 m 592 7 l 465 7 l 465 36 l 592 36 l 592 7 m 714 -196 l 690 -196 l 604 -43 l 628 -33 l 714 -196 m 421 207 l 403 17 l 375 17 l 392 207 l 421 207 m 28 453 l 11 261 l -17 261 l 0 453 l 28 453 m 329 7 l 74 7 l 74 36 l 329 36 l 329 7 z "},"l":{"ha":728,"x_min":11,"x_max":760,"o":"m 628 8 l 104 8 l 104 38 l 628 38 l 628 8 m 454 956 l 438 763 l 408 763 l 425 956 l 454 956 m 363 1001 l 104 1001 l 104 1029 l 363 1029 l 363 1001 m 26 1082 l 26 1082 l 26 1082 l 26 1082 m 454 707 l 438 514 l 408 514 l 425 707 l 454 707 m 760 257 l 501 257 l 501 286 l 760 286 l 760 257 m 58 956 l 40 763 l 11 763 l 29 956 l 58 956 m 751 207 l 664 47 l 640 57 l 728 215 l 751 207 m 454 458 l 438 267 l 408 267 l 425 458 l 454 458 m 58 707 l 40 514 l 11 514 l 29 707 l 58 707 m 58 458 l 40 267 l 11 267 l 29 458 l 58 458 z "},"m":{"ha":1208,"x_min":4,"x_max":1243,"o":"m 1099 599 l 1074 599 l 978 765 l 1004 776 l 1099 599 m 1243 328 l 1217 328 l 1122 496 l 1149 507 l 1243 328 m 964 822 l 249 822 l 249 854 l 964 854 l 964 822 m 1243 226 l 1149 51 l 1122 64 l 1218 235 l 1243 226 m 800 504 q 763 343 763 356 q 724 383 725 382 q 697 444 697 415 l 697 501 q 722 479 710 501 q 744 432 733 457 q 779 468 765 443 q 800 504 796 500 m 1100 -44 l 1004 -218 l 978 -207 l 1074 -35 l 1100 -44 m 511 504 q 475 343 475 356 q 435 383 436 382 q 410 444 408 415 l 410 501 q 433 479 421 501 q 456 432 444 457 q 490 468 476 443 q 511 504 507 500 m 775 231 l 757 21 l 725 21 l 744 231 l 775 231 m 233 767 l 138 593 l 113 604 l 207 776 l 233 767 m 956 -214 l 929 -214 l 835 -46 l 860 -35 l 956 -214 m 675 11 l 538 11 l 538 42 l 675 42 l 675 11 m 486 231 l 468 21 l 436 21 l 456 231 l 486 231 m 54 501 l 35 292 l 4 292 l 22 501 l 54 501 m 386 11 l 104 11 l 104 42 l 386 42 l 386 11 z "},"n":{"ha":1096,"x_min":-10,"x_max":1129,"o":"m 979 608 l 953 608 l 854 783 l 881 794 l 979 608 m 1129 326 l 1103 326 l 1004 501 l 1031 513 l 1129 326 m 839 842 l 244 842 l 244 875 l 839 875 l 839 842 m 1129 221 l 1031 40 l 1004 51 l 1103 231 l 1129 221 m 643 508 l 624 289 l 590 289 l 610 508 l 643 508 m 229 785 l 129 603 l 103 615 l 201 794 l 229 785 m 979 -60 l 881 -242 l 854 -229 l 953 -50 l 979 -60 m 643 226 l 624 8 l 590 8 l 610 226 l 643 226 m 829 -236 l 803 -236 l 704 -61 l 731 -50 l 829 -236 m 42 508 l 22 289 l -10 289 l 10 508 l 42 508 m 539 -3 l 94 -3 l 94 31 l 539 31 l 539 -3 z "},"o":{"ha":1019,"x_min":0,"x_max":1047,"o":"m 942 608 l 915 608 l 817 783 l 843 794 l 942 608 m 801 842 l 207 842 l 207 875 l 801 875 l 801 842 m 651 560 l 507 560 l 507 593 l 651 593 l 651 560 m 786 426 q 675 346 735 376 l 749 426 l 674 506 q 786 426 707 506 m 942 221 l 843 40 l 817 51 l 915 231 l 942 221 m 651 279 l 507 279 l 507 311 l 651 311 l 651 279 m 485 347 q 372 426 451 347 q 483 507 424 476 l 410 426 l 485 347 m 192 785 l 92 603 l 65 615 l 164 794 l 192 785 m 801 -3 l 207 -3 l 207 31 l 801 31 l 801 -3 m 74 324 q 23 363 46 333 q 0 422 0 392 q 74 521 0 483 q 38 422 38 494 q 74 324 38 346 m 974 338 q 1024 376 1001 347 q 1047 436 1047 406 q 974 535 1047 497 q 1010 435 1010 508 q 974 338 1010 360 z "},"p":{"ha":1117,"x_min":-14,"x_max":1165,"o":"m 1021 610 l 994 610 l 896 785 l 922 796 l 1021 610 m 1165 428 q 1054 347 1115 378 l 1128 428 l 1053 507 q 1165 428 1086 507 m 881 843 l -14 843 l -14 876 l 881 876 l 881 843 m 865 428 q 754 347 814 378 l 828 428 l 753 507 q 865 428 786 507 m 1021 222 l 922 42 l 896 53 l 994 232 l 1021 222 m 731 561 l 136 561 l 136 594 l 731 594 l 731 561 m 731 281 l 586 281 l 586 313 l 731 313 l 731 281 m 533 510 l 514 290 l 482 290 l 501 510 l 533 510 m 121 610 l 93 610 l -6 785 l 21 796 l 121 610 m 881 -1 l 586 -1 l 586 32 l 881 32 l 881 -1 m 83 510 l 64 290 l 32 290 l 51 510 l 83 510 m 533 -53 l 514 -272 l 482 -272 l 501 -53 l 533 -53 m 431 -283 l 136 -283 l 136 -250 l 431 -250 l 431 -283 m 83 -53 l 64 -272 l 32 -272 l 51 -53 l 83 -53 z "},"q":{"ha":1176,"x_min":6,"x_max":1185,"o":"m 1175 794 l 1076 614 l 1050 625 l 1149 804 l 1175 794 m 1185 853 l 290 853 l 290 885 l 1185 885 l 1185 853 m 1139 518 l 1119 300 l 1086 300 l 1106 518 l 1139 518 m 1035 571 l 440 571 l 440 603 l 1035 603 l 1035 571 m 1139 238 l 1119 18 l 1086 18 l 1106 238 l 1139 238 m 688 518 l 668 300 l 636 300 l 656 518 l 688 518 m 1139 -44 l 1119 -264 l 1086 -264 l 1106 -44 l 1139 -44 m 275 794 l 175 614 l 149 625 l 247 804 l 275 794 m 585 289 l 440 289 l 440 322 l 585 322 l 585 289 m 418 358 q 306 438 385 358 q 417 518 356 488 l 343 438 l 418 358 m 1035 -274 l 740 -274 l 740 -242 l 1035 -242 l 1035 -274 m 688 -44 l 668 -264 l 636 -264 l 656 -44 l 688 -44 m 118 358 q 6 438 85 358 q 117 518 56 488 l 43 438 l 118 358 m 585 7 l 290 7 l 290 40 l 585 40 l 585 7 m 275 56 l 247 56 l 149 231 l 175 242 l 275 56 z "},"r":{"ha":1015,"x_min":-107,"x_max":1078,"o":"m 1078 614 l 1051 614 l 953 789 l 979 800 l 1078 614 m 1078 508 l 979 328 l 953 339 l 1051 518 l 1078 508 m 928 333 l 901 333 l 803 507 l 829 518 l 928 333 m 938 847 l -107 847 l -107 881 l 938 881 l 938 847 m 788 565 l 493 565 l 493 599 l 788 599 l 788 565 m 590 514 l 571 294 l 539 294 l 558 514 l 590 514 m 186 565 l 43 565 l 43 599 l 186 599 l 186 565 m 590 232 l 571 14 l 539 14 l 558 232 l 590 232 m 28 614 l 0 614 l -99 789 l -72 800 l 28 614 m 140 514 l 121 294 l 89 294 l 108 514 l 140 514 m 488 3 l 193 3 l 193 36 l 488 36 l 488 3 z "},"s":{"ha":1136,"x_min":154,"x_max":1199,"o":"m 1189 789 l 1090 608 l 1064 619 l 1163 799 l 1189 789 m 1199 846 l 304 846 l 304 879 l 1199 879 l 1199 846 m 1049 565 l 604 565 l 604 597 l 1049 597 l 1049 565 m 1039 332 l 1013 332 l 914 507 l 940 518 l 1039 332 m 1183 150 q 1072 69 1133 100 l 1146 150 l 1071 229 q 1183 150 1104 229 m 289 789 l 189 608 l 163 619 l 261 799 l 289 789 m 1039 -56 l 940 -236 l 914 -225 l 1013 -46 l 1039 -56 m 749 283 l 304 283 l 304 317 l 749 317 l 749 283 m 889 -231 l 863 -231 l 764 -57 l 790 -46 l 889 -231 m 289 332 l 261 332 l 163 507 l 189 518 l 289 332 m 749 1 l 154 1 l 154 35 l 749 35 l 749 1 z "},"t":{"ha":532,"x_min":-110,"x_max":803,"o":"m 679 740 l 553 740 l 553 769 l 679 769 l 679 740 m 803 536 l 779 536 l 693 689 l 715 699 l 803 536 m 506 943 l 489 750 l 460 750 l 478 943 l 506 943 m 414 989 l 156 989 l 156 1018 l 414 1018 l 414 989 m 679 493 l 419 493 l 419 522 l 679 522 l 679 493 m 142 939 l 54 779 l 31 789 l 118 947 l 142 939 m 506 447 l 489 254 l 460 254 l 478 447 l 506 447 m 18 740 l -110 740 l -110 769 l 18 769 l 18 740 m 506 199 l 489 6 l 460 6 l 478 199 l 506 199 m 10 536 l -14 536 l -101 689 l -78 699 l 10 536 m 110 447 l 92 254 l 64 254 l 81 447 l 110 447 m 414 -3 l 156 -3 l 156 25 l 414 25 l 414 -3 z "},"u":{"ha":918,"x_min":10,"x_max":981,"o":"m 981 615 l 954 615 l 858 792 l 883 803 l 981 615 m 843 851 l 554 851 l 554 883 l 843 883 l 843 851 m 981 510 l 883 326 l 858 339 l 954 519 l 981 510 m 503 799 l 485 578 l 451 578 l 471 799 l 503 799 m 401 851 l 113 851 l 113 883 l 401 883 l 401 851 m 833 225 l 736 43 l 711 54 l 807 235 l 833 225 m 503 514 l 485 294 l 451 294 l 471 514 l 503 514 m 61 799 l 43 578 l 10 578 l 29 799 l 61 799 m 61 514 l 43 294 l 10 294 l 29 514 l 61 514 m 696 -1 l 113 -1 l 113 32 l 696 32 l 696 -1 z "},"v":{"ha":960,"x_min":3,"x_max":1139,"o":"m 1139 914 l 819 914 l 819 950 l 1139 950 l 1139 914 m 1129 851 l 1021 656 l 993 668 l 1100 863 l 1129 851 m 803 851 l 694 656 l 665 668 l 774 863 l 803 851 m 967 546 l 858 349 l 829 361 l 936 556 l 967 546 m 639 661 l 610 661 l 503 850 l 532 863 l 639 661 m 486 914 l 3 914 l 3 950 l 486 950 l 486 914 m 803 239 l 694 42 l 665 54 l 774 250 l 803 239 m 149 661 l 119 661 l 13 850 l 42 863 l 149 661 m 313 354 l 283 354 l 175 544 l 204 557 l 313 354 m 650 -4 l 493 -4 l 493 31 l 650 31 l 650 -4 m 476 47 l 446 47 l 339 238 l 368 250 l 476 47 z "},"w":{"ha":1078,"x_min":-25,"x_max":1272,"o":"m 1272 765 l 989 765 l 989 796 l 1272 796 l 1272 765 m 1264 711 l 1168 540 l 1143 551 l 1238 721 l 1264 711 m 975 711 l 879 540 l 853 551 l 949 721 l 975 711 m 1119 446 l 1024 275 l 997 286 l 1093 454 l 1119 446 m 693 765 l 554 765 l 554 796 l 693 796 l 693 765 m 829 546 l 803 546 l 708 710 l 733 721 l 829 546 m 540 711 l 444 540 l 418 551 l 514 721 l 540 711 m 975 181 l 879 8 l 853 19 l 949 189 l 975 181 m 394 546 l 368 546 l 274 710 l 300 721 l 394 546 m 260 765 l -25 765 l -25 796 l 260 796 l 260 765 m 839 -32 l 700 -32 l 700 -1 l 839 -1 l 839 -32 m 685 14 l 658 14 l 564 179 l 589 189 l 685 14 m 106 546 l 79 546 l -17 710 l 10 721 l 106 546 m 540 181 l 444 8 l 418 19 l 514 189 l 540 181 m 250 279 l 224 279 l 129 444 l 154 456 l 250 279 m 394 14 l 368 14 l 274 179 l 300 189 l 394 14 z "},"x":{"ha":1132,"x_min":-6,"x_max":1172,"o":"m 1172 835 l 735 835 l 735 868 l 1172 868 l 1172 835 m 1164 779 l 1065 600 l 1039 611 l 1138 789 l 1164 779 m 1008 349 q 899 426 976 349 q 1007 506 947 475 l 935 426 l 1008 349 m 719 779 l 621 600 l 594 611 l 693 789 l 719 779 m 1164 50 l 1136 50 l 1039 222 l 1065 233 l 1164 50 m 571 606 l 544 606 l 447 778 l 474 789 l 571 606 m 432 835 l -6 835 l -6 868 l 432 868 l 432 835 m 1164 -54 l 1065 -233 l 1039 -222 l 1138 -44 l 1164 -54 m 876 1 l 735 1 l 735 35 l 876 35 l 876 1 m 1015 -228 l 989 -228 l 892 -56 l 918 -44 l 1015 -228 m 719 50 l 692 50 l 594 222 l 621 233 l 719 50 m 126 606 l 100 606 l 3 778 l 29 789 l 126 606 m 571 224 l 474 44 l 447 56 l 544 233 l 571 224 m 268 426 q 160 346 219 376 l 232 426 l 158 504 q 268 426 190 504 m 432 1 l 142 1 l 142 35 l 432 35 l 432 1 z "},"y":{"ha":1389,"x_min":-117,"x_max":944,"o":"m 276 -44 l 183 -215 l 158 -204 l 250 -36 l 276 -44 m 135 -210 l 110 -210 l 18 -46 l 43 -36 l 135 -210 m 911 886 l 911 886 l 911 886 l 911 886 m 944 751 l 926 546 l 896 546 l 914 751 l 944 751 m 847 800 l 572 800 l 572 831 l 847 831 l 847 800 m 490 886 l 490 886 l 490 886 l 490 886 m 944 488 l 926 282 l 896 282 l 914 488 l 944 488 m 522 751 l 504 546 l 474 546 l 492 751 l 522 751 m 944 224 l 926 18 l 896 18 l 914 224 l 944 224 m 425 800 l 10 800 l 10 831 l 425 831 l 425 800 m 565 272 l 150 272 l 150 303 l 565 303 l 565 272 m -12 601 q -117 675 -43 601 q -12 750 -69 722 l -82 675 l -12 601 m 847 8 l 290 8 l 290 39 l 847 39 l 847 8 m 135 318 l 110 318 l 18 481 l 43 492 l 135 318 m 135 218 l 42 49 l 18 60 l 110 228 l 135 218 z "},"z":{"ha":1088,"x_min":-6,"x_max":1128,"o":"m 1119 749 l 1025 576 l 1000 588 l 1094 758 l 1119 749 m 1128 803 l -6 803 l -6 835 l 1128 835 l 1128 803 m 978 482 l 883 310 l 858 321 l 951 490 l 978 482 m 1119 47 l 1093 47 l 1000 214 l 1025 224 l 1119 47 m 1119 -53 l 1025 -224 l 1000 -214 l 1094 -43 l 1119 -53 m 558 536 l 138 536 l 138 567 l 558 567 l 558 536 m 978 -219 l 951 -219 l 858 -54 l 883 -43 l 978 -219 m 122 582 l 97 582 l 3 747 l 28 758 l 122 582 m 265 482 l 171 310 l 146 321 l 239 490 l 265 482 m 843 1 l 138 1 l 138 33 l 843 33 l 843 1 z "},"{":{"ha":704,"x_min":1,"x_max":671,"o":"m 671 1039 l 325 1039 l 325 1063 l 671 1063 l 671 1039 m 663 996 l 586 864 l 565 872 l 642 1004 l 663 996 m 546 789 l 469 657 l 449 665 l 525 797 l 546 789 m 313 996 l 236 864 l 215 872 l 292 1004 l 313 996 m 410 440 q 369 469 388 447 q 351 513 351 490 q 408 585 351 558 q 381 513 381 567 q 410 440 381 457 m 196 789 l 119 657 l 99 665 l 175 797 l 196 789 m 546 246 l 525 246 l 449 375 l 469 383 l 546 246 m 663 39 l 642 39 l 565 168 l 586 176 l 663 39 m 60 440 q 19 469 38 447 q 1 513 1 490 q 58 585 1 558 q 31 513 31 567 q 60 440 31 457 m 196 246 l 175 246 l 99 375 l 119 383 l 196 246 m 554 4 l 325 4 l 325 28 l 554 28 l 554 4 m 313 39 l 292 39 l 215 168 l 236 176 l 313 39 z "},"}":{"ha":614,"x_min":15,"x_max":589,"o":"m 403 789 l 385 789 l 319 904 l 338 913 l 403 789 m 503 603 l 485 603 l 419 718 l 436 725 l 503 603 m 310 943 l 15 943 l 15 965 l 310 965 l 310 943 m 104 789 l 86 789 l 21 904 l 39 913 l 104 789 m 204 603 l 186 603 l 121 718 l 138 725 l 204 603 m 503 346 l 436 225 l 419 233 l 485 351 l 503 346 m 403 160 l 338 39 l 319 47 l 385 165 l 403 160 m 204 346 l 138 225 l 121 233 l 186 351 l 204 346 m 310 11 l 115 11 l 115 32 l 310 32 l 310 11 m 104 160 l 39 39 l 21 47 l 86 165 l 104 160 m 403 789 l 338 913 l 319 904 l 385 789 l 403 789 m 503 603 l 436 725 l 419 718 l 485 603 l 503 603 m 310 943 l 310 965 l 15 965 l 15 943 l 310 943 m 104 789 l 39 913 l 21 904 l 86 789 l 104 789 m 204 603 l 138 725 l 121 718 l 186 603 l 204 603 m 503 346 l 485 351 l 419 233 l 436 225 l 503 346 m 403 160 l 385 165 l 319 47 l 338 39 l 403 160 m 204 346 l 186 351 l 121 233 l 138 225 l 204 346 m 310 11 l 310 32 l 115 32 l 115 11 l 310 11 m 104 160 l 86 165 l 21 47 l 39 39 l 104 160 m 561 504 l 565 461 l 550 429 l 532 410 l 558 414 l 574 435 l 589 465 l 582 497 l 574 525 l 538 531 l 561 504 m 561 504 l 565 461 l 550 429 l 532 410 l 558 414 l 574 435 l 589 465 l 582 497 l 574 525 l 538 531 l 561 504 m 256 504 l 258 461 l 243 429 l 225 410 l 251 414 l 267 435 l 282 465 l 276 497 l 267 525 l 231 531 l 256 504 m 256 504 l 258 461 l 243 429 l 225 410 l 251 414 l 267 435 l 282 465 l 276 497 l 267 525 l 231 531 l 256 504 z "}}}
